<?xml version="1.0" standalone="no"?>
<!DOCTYPE svg PUBLIC "-//W3C//DTD SVG 20010904//EN"
 "http://www.w3.org/TR/2001/REC-SVG-20010904/DTD/svg10.dtd">
<svg version="1.0" xmlns="http://www.w3.org/2000/svg"
 width="1024.000000pt" height="1024.000000pt" viewBox="0 0 1024.000000 1024.000000"
 preserveAspectRatio="xMidYMid meet">

<g transform="translate(0.000000,1024.000000) scale(0.100000,-0.100000)"
fill="#000000" stroke="none">
<path d="M0 7426 c0 -1866 3 -2817 10 -2821 6 -3 10 -14 10 -23 0 -15 -2 -15
-10 -2 -6 10 -10 -796 -10 -2282 l0 -2298 5120 0 5120 0 0 2553 0 2552 -60 65
c-48 51 -61 73 -66 108 -8 54 5 86 37 87 13 1 39 2 57 3 l32 2 0 420 c-1 408
-2 420 -21 420 -10 0 -19 -4 -19 -10 0 -5 6 -7 13 -4 8 3 13 -4 14 -17 1 -12
-1 -19 -4 -15 -3 3 -15 -1 -27 -9 -27 -19 -42 -19 -26 0 11 14 7 19 -12 16 -5
0 -8 8 -8 19 0 11 4 20 10 20 5 0 7 7 3 17 -5 13 -2 15 15 11 15 -4 19 -2 15
8 -3 9 2 14 17 14 19 0 20 -2 10 -15 -9 -11 -9 -15 -1 -15 18 0 26 31 10 41
-10 6 -10 9 -1 9 9 0 12 60 12 265 0 177 -3 265 -10 265 -6 0 -10 6 -9 12 3
21 -13 78 -21 78 -5 0 -16 3 -26 7 -12 4 -15 3 -10 -5 4 -7 2 -12 -3 -12 -13
0 -14 10 -2 28 6 9 20 12 45 8 l36 -6 0 50 c0 44 -3 51 -36 76 -30 23 -35 32
-32 63 2 30 9 39 36 50 l32 15 0 112 0 113 -34 16 c-42 20 -51 49 -31 105 18
50 18 60 5 60 -18 0 -37 -55 -34 -97 l4 -43 -45 0 c-25 0 -45 -4 -45 -9 0 -5
-10 -11 -23 -15 -12 -3 -32 -15 -45 -26 -20 -19 -53 -29 -104 -33 -9 -1 -16
-6 -15 -11 1 -5 -11 -12 -27 -15 -28 -6 -27 -7 18 -19 35 -9 62 -27 102 -67
47 -47 59 -54 83 -49 24 5 32 1 46 -19 27 -41 16 -79 -27 -100 -21 -9 -38 -22
-38 -27 0 -22 -18 -8 -34 28 -17 36 -101 113 -153 140 -43 23 -173 32 -210 15
-46 -21 -88 -72 -104 -127 -9 -33 -19 -46 -31 -46 -10 0 -21 6 -24 14 -9 23
-78 64 -120 71 -22 4 -47 9 -56 12 -13 3 -18 -1 -18 -14 0 -10 -9 -24 -20 -31
-12 -7 -25 -23 -29 -35 -6 -14 -29 -30 -69 -46 -45 -17 -68 -34 -87 -60 -14
-21 -25 -40 -25 -45 0 -16 -40 -93 -55 -106 -22 -18 -19 -26 18 -47 60 -36 73
-35 117 9 22 22 40 44 40 49 0 5 9 9 19 9 11 0 22 9 26 19 10 33 29 42 62 30
33 -11 55 -47 43 -70 -5 -8 -29 -23 -54 -34 -25 -11 -46 -24 -46 -30 0 -10
-15 -29 -79 -102 -17 -20 -24 -34 -17 -37 6 -2 4 -5 -4 -5 -18 -1 -70 -47 -71
-64 -1 -7 -1 -17 0 -23 2 -16 -35 -10 -56 8 -10 9 -38 26 -62 38 -135 68 -209
143 -197 201 8 40 -12 83 -64 142 -55 62 -117 104 -204 137 l-70 27 -33 -21
c-18 -11 -40 -37 -48 -56 -28 -61 -31 -65 -68 -68 -31 -3 -39 -9 -53 -38 -19
-40 -27 -46 -74 -54 -29 -5 -40 -1 -61 20 -15 14 -30 37 -34 50 -4 14 -18 37
-32 52 -14 14 -22 32 -18 38 4 6 -1 20 -11 31 -12 13 -19 37 -19 67 -1 55 -15
60 -58 25 -16 -13 -42 -23 -59 -23 -17 0 -39 -7 -49 -16 -23 -20 -97 -25 -145
-8 -22 8 -52 14 -67 14 -41 0 -83 28 -104 69 -20 40 -22 43 -64 91 -26 31 -30
41 -26 81 3 26 8 52 11 58 4 6 -22 39 -57 73 -35 35 -66 71 -70 81 -7 19 -53
41 -79 38 -10 -1 -18 3 -18 8 0 15 -27 14 -33 -1 -3 -10 -9 -10 -26 0 -11 6
-30 12 -41 12 -13 0 -22 9 -26 25 -6 24 -23 37 -94 71 -30 14 -55 15 -171 9
-193 -10 -221 5 -222 117 0 27 6 44 21 57 12 10 22 23 22 30 0 6 4 11 8 11 10
0 33 61 26 71 -3 5 0 9 5 9 6 0 11 16 11 35 0 19 4 35 10 35 6 0 6 9 1 23 -9
24 -9 48 3 88 12 40 -14 85 -97 174 -42 44 -84 95 -94 112 -26 49 -63 57 -153
34 -41 -10 -79 -18 -85 -16 -84 17 -136 52 -185 125 -13 19 -37 49 -55 66 -24
23 -31 37 -29 60 6 54 16 89 34 109 10 11 20 36 24 56 4 21 15 48 26 62 11 14
20 34 20 45 0 53 96 73 147 31 32 -25 43 -47 62 -116 36 -135 37 -136 129
-149 43 -5 50 -3 72 20 21 22 34 26 82 26 64 0 88 -7 88 -24 0 -7 11 -18 24
-24 29 -13 47 -79 27 -92 -8 -4 4 -18 36 -38 26 -17 68 -49 92 -71 25 -22 48
-38 53 -35 5 3 22 -1 38 -10 58 -28 84 -29 114 -1 15 14 34 25 42 25 8 0 12 4
9 10 -3 5 0 7 8 4 8 -3 18 0 22 6 6 9 10 9 16 -1 8 -11 14 -9 30 10 11 14 28
26 37 28 59 9 95 19 93 26 -6 33 -1 35 42 22 56 -18 107 -44 137 -72 14 -13
30 -23 37 -23 7 0 13 -3 13 -7 0 -5 12 -9 28 -10 110 -8 222 -48 222 -80 0 -5
9 -9 20 -10 11 -1 20 3 20 8 0 5 8 9 18 7 11 -2 17 4 18 17 1 11 2 26 3 33 1
7 5 11 11 7 16 -10 50 18 44 37 -3 10 -1 18 4 18 17 0 55 82 65 140 14 74 11
168 -7 205 -21 46 -46 155 -34 155 6 0 8 7 4 15 -8 22 40 125 58 125 9 0 16 4
16 8 0 28 116 109 168 118 7 1 23 9 35 16 37 24 189 7 269 -31 36 -17 70 -31
76 -31 7 0 12 -4 12 -10 0 -5 5 -10 10 -10 12 0 60 -41 104 -88 26 -28 36 -33
63 -29 26 5 31 3 26 -10 -5 -13 1 -14 35 -9 23 3 61 9 83 12 30 4 40 3 35 -5
-4 -6 -11 -9 -16 -6 -5 3 -11 1 -14 -4 -3 -5 18 -11 47 -13 38 -3 66 -14 102
-38 28 -19 52 -38 53 -42 2 -4 10 -8 18 -8 8 0 14 -7 14 -15 0 -8 4 -15 8 -15
19 0 44 -68 59 -157 8 -54 19 -106 24 -115 10 -19 39 -25 39 -8 0 20 20 9 26
-13 7 -31 91 -54 109 -31 21 29 116 54 207 54 49 0 88 -3 88 -7 0 -5 19 -17
43 -28 23 -11 48 -26 55 -32 7 -7 18 -13 23 -13 13 0 59 54 85 100 22 39 22
39 2 62 -11 12 -22 35 -25 50 -3 15 -13 30 -22 33 -17 5 -44 56 -56 108 -4 15
-11 27 -16 27 -5 0 -9 9 -9 20 0 12 -7 32 -16 45 -13 19 -14 39 -9 100 4 41
11 75 16 75 5 0 9 6 9 14 0 8 9 17 19 21 10 3 21 15 24 25 3 11 12 20 21 20 9
0 16 7 16 15 0 25 3 29 27 48 13 10 23 27 23 38 0 24 17 25 23 2 4 -14 5 -12
6 5 1 19 6 22 42 22 28 0 39 4 37 13 -5 12 -9 14 -53 16 -14 0 -25 6 -25 11 0
6 -12 22 -27 35 -22 19 -25 27 -14 34 11 7 11 10 0 17 -7 4 -14 3 -17 -4 -2
-7 -16 -12 -30 -12 -19 0 -23 3 -13 9 11 7 10 11 -5 19 -18 10 -17 11 6 21 22
9 23 10 4 10 -11 1 -24 -2 -28 -6 -3 -4 -39 -8 -79 -9 -135 -5 -246 48 -313
151 -45 69 -64 172 -41 227 22 51 76 122 112 144 83 52 90 54 154 52 42 -1 66
3 69 10 3 9 -1154 12 -4847 12 l-4851 0 0 -2814z m9787 2178 c-3 -3 -12 -4
-19 -1 -8 3 -5 6 6 6 11 1 17 -2 13 -5z m-4252 -858 c57 -10 76 -10 100 0 43
19 165 16 188 -4 10 -9 17 -11 17 -4 0 7 5 12 10 12 6 0 10 -6 10 -14 0 -7 7
-19 15 -26 22 -18 18 -35 -11 -48 -14 -7 -23 -16 -19 -21 8 -13 -34 -50 -65
-58 -14 -3 -31 -10 -38 -16 -7 -5 -29 -11 -50 -13 -55 -5 -120 -20 -134 -31
-26 -21 -111 -44 -119 -32 -5 8 -8 8 -13 0 -4 -6 -29 -11 -56 -11 -59 0 -64
10 -61 120 2 91 17 115 86 140 61 22 54 22 140 6z m-3500 -928 c89 -19 148
-52 196 -107 56 -64 95 -167 86 -230 -12 -92 -89 -197 -163 -221 -20 -7 -73
-14 -118 -16 -141 -6 -196 -14 -196 -30 0 -22 -144 -13 -170 11 -23 21 -35 89
-26 150 6 36 18 56 62 102 l55 58 -11 42 c-38 155 40 267 179 256 31 -2 79 -9
106 -15z m5130 -382 c13 -9 40 -44 60 -78 41 -69 74 -108 93 -108 7 0 15 -7
18 -15 4 -8 14 -15 24 -15 10 0 32 -19 49 -42 70 -95 10 -223 -95 -203 -40 7
-99 71 -109 116 -4 19 -21 50 -36 69 -16 19 -29 42 -29 51 0 9 -22 40 -49 68
-68 72 -75 116 -26 165 18 18 66 14 100 -8z m-3927 -13 c36 33 299 -17 438
-84 137 -65 269 -179 322 -278 12 -24 29 -55 37 -70 52 -95 75 -186 82 -322 7
-130 -4 -180 -43 -206 -14 -9 -22 -18 -20 -21 3 -3 12 1 21 8 11 9 15 9 15 1
0 -16 -53 -36 -58 -22 -2 6 -16 8 -33 4 -28 -5 -131 20 -155 38 -6 5 -37 11
-70 15 -56 6 -62 10 -114 64 -49 51 -62 60 -112 70 -32 6 -61 17 -65 23 -15
23 -38 12 -55 -25 -9 -21 -24 -38 -32 -38 -10 0 -14 -9 -13 -27 2 -24 -1 -28
-23 -25 -14 1 -43 -7 -65 -18 -42 -21 -85 -26 -85 -10 0 6 5 10 11 10 20 0 -2
19 -30 25 -15 3 -38 17 -49 30 -24 27 -39 105 -21 105 6 0 9 13 8 28 -3 29 47
122 66 122 6 0 21 9 35 20 15 11 41 20 63 20 25 0 36 4 31 11 -3 6 -17 9 -30
6 -31 -6 -32 15 -1 36 18 13 19 18 8 25 -7 6 -10 15 -7 21 4 6 -4 16 -21 22
-15 6 -23 13 -16 16 8 3 5 15 -9 39 -12 21 -18 43 -14 57 3 14 -1 33 -10 45
-8 12 -14 32 -13 45 2 12 -2 31 -7 42 -6 11 -9 34 -8 50 2 17 4 61 5 99 1 49
4 64 11 52 9 -16 12 -16 26 -3z m-41 -275 c-3 -7 -5 -2 -5 12 0 14 2 19 5 13
2 -7 2 -19 0 -25z m6653 -133 c-8 -10 -7 -14 2 -18 7 -2 10 -7 7 -11 -9 -10
-57 14 -63 31 -10 25 3 32 35 21 23 -8 27 -13 19 -23z m-68 -25 c-7 -46 -62
-54 -62 -9 0 10 5 19 10 19 6 0 10 6 10 14 0 8 8 12 23 9 19 -4 23 -10 19 -33z
m-336 -38 c-3 -5 9 -6 26 -4 l30 5 -18 -28 c-15 -23 -15 -28 -3 -36 8 -5 10
-9 4 -9 -5 0 -17 5 -25 10 -13 9 -13 11 0 19 8 6 11 13 7 18 -12 11 -27 -19
-21 -40 5 -16 2 -18 -18 -12 -22 7 -48 31 -48 46 0 4 12 21 27 38 22 25 29 28
36 16 4 -8 6 -19 3 -23z m52 20 c2 -7 -3 -12 -12 -12 -9 0 -16 7 -16 16 0 17
22 14 28 -4z m156 -34 c8 -12 12 -26 8 -32 -3 -6 -5 -19 -4 -28 2 -10 -1 -18
-6 -18 -14 0 -22 36 -11 47 6 6 1 17 -12 28 -20 19 -20 19 -13 -10 7 -28 7
-29 -10 -12 -20 20 -36 22 -36 5 0 -10 -2 -10 -8 0 -9 14 -42 6 -42 -10 0 -6
7 -8 15 -4 8 3 15 1 15 -4 0 -11 -11 -13 -34 -4 -37 14 -13 37 52 50 8 1 16 5
20 8 13 14 52 4 66 -16z m379 -58 c18 -21 43 -28 31 -8 -5 7 -3 8 6 3 10 -6 9
-12 -6 -24 -22 -18 -31 -86 -13 -97 8 -4 9 -3 5 4 -4 7 -3 12 2 12 16 0 24 33
10 42 -9 5 -5 7 9 5 25 -3 44 -17 24 -17 -7 0 -9 -4 -6 -10 3 -5 1 -10 -6 -10
-7 0 -9 -3 -6 -6 3 -4 -5 -16 -19 -27 -14 -11 -23 -26 -20 -33 4 -11 1 -12
-13 -5 -22 12 -36 2 -18 -13 7 -6 10 -10 8 -9 -2 2 -11 -3 -19 -10 -13 -9 -14
-9 -8 1 4 6 2 12 -3 12 -6 0 -11 -7 -11 -15 0 -9 -9 -15 -22 -15 l-22 0 23 21
c14 14 20 28 17 42 -3 12 -3 16 0 10 8 -18 24 -16 24 3 0 8 5 12 10 9 20 -13
9 14 -12 29 -12 9 -18 16 -12 16 5 0 16 -6 23 -12 11 -11 13 -9 8 10 -3 14 -1
22 8 22 9 0 11 8 8 23 -7 28 -30 47 -49 40 -8 -3 -14 0 -14 7 0 6 -4 8 -10 5
-5 -3 -10 -1 -10 4 0 20 65 12 83 -9z m-1503 -4 c0 -3 -4 -8 -10 -11 -5 -3
-10 -1 -10 4 0 6 5 11 10 11 6 0 10 -2 10 -4z m1085 -6 c3 -5 1 -10 -4 -10 -6
0 -11 5 -11 10 0 6 2 10 4 10 3 0 8 -4 11 -10z m540 0 c-11 -5 -16 -9 -11 -9
5 -1 3 -8 -4 -16 -17 -20 -32 -8 -20 16 6 10 21 19 33 18 21 0 21 -1 2 -9z
m-4063 -26 c16 -34 -18 -164 -42 -164 -24 0 -67 36 -85 70 -37 72 1 117 99
116 10 0 23 -10 28 -22z m3478 0 c0 -2 -9 0 -20 6 -11 6 -20 13 -20 16 0 2 9
0 20 -6 11 -6 20 -13 20 -16z m390 -9 c-7 -18 -6 -25 3 -25 8 0 7 -4 -3 -10
-13 -9 -13 -12 3 -24 18 -14 18 -15 -2 -26 -26 -14 -28 -6 -15 62 3 18 7 38 7
45 0 7 4 10 8 7 5 -2 4 -16 -1 -29z m-1465 11 c27 -10 40 -20 40 -33 0 -11 -7
-17 -17 -17 -11 1 -18 -5 -18 -17 0 -24 -33 -41 -73 -37 -29 3 -32 6 -35 40
-2 27 2 41 19 57 27 25 31 25 84 7z m1099 -2 c3 -8 2 -12 -4 -9 -6 3 -10 10
-10 16 0 14 7 11 14 -7z m46 -4 c0 -5 -4 -10 -9 -10 -6 0 -13 5 -16 10 -3 6 1
10 9 10 9 0 16 -4 16 -10z m36 -56 c5 -40 2 -53 -14 -72 -11 -13 -23 -19 -26
-14 -3 6 0 12 8 15 9 4 12 16 9 39 -5 37 -5 43 -2 75 5 36 19 11 25 -43z m338
51 c-4 -8 -11 -12 -16 -9 -6 4 -5 10 3 15 19 12 19 11 13 -6z m186 5 c0 -5 -2
-10 -4 -10 -3 0 -8 5 -11 10 -3 6 -1 10 4 10 6 0 11 -4 11 -10z m-60 -30 c0
-5 -4 -10 -10 -10 -5 0 -10 5 -10 10 0 6 5 10 10 10 6 0 10 -4 10 -10z m70 0
c0 -5 -5 -10 -11 -10 -5 0 -7 5 -4 10 3 6 8 10 11 10 2 0 4 -4 4 -10z m-35
-18 c-3 -3 -11 0 -18 7 -9 10 -8 11 6 5 10 -3 15 -9 12 -12z m-3055 -12 c41
-21 90 -82 90 -112 0 -32 -22 -66 -55 -83 -50 -28 -100 -13 -153 43 -42 44
-44 49 -38 92 10 78 73 102 156 60z m2510 -5 c19 -22 8 -25 -12 -3 -10 10 -14
18 -9 18 5 0 14 -7 21 -15z m250 -11 c0 -14 -4 -23 -10 -19 -6 4 -8 11 -5 16
4 5 -4 9 -16 9 l-22 0 23 -25 c13 -14 18 -25 12 -25 -6 0 -14 5 -17 11 -4 6
-13 8 -21 5 -8 -3 -19 4 -25 17 -11 20 -11 21 5 8 14 -12 16 -12 10 2 -4 11 2
17 18 20 44 8 48 7 48 -19z m-2050 1 c16 -9 37 -29 45 -46 20 -37 16 -94 -5
-94 -8 0 -39 -13 -68 -28 -59 -31 -81 -29 -112 10 -26 34 -25 56 5 89 13 14
23 30 20 34 -3 4 5 10 16 13 13 4 18 10 13 18 -4 8 -3 10 4 5 7 -4 12 -2 12 3
0 16 36 13 70 -4z m720 11 c0 -11 -19 -15 -25 -6 -3 5 1 10 9 10 9 0 16 -2 16
-4z m1225 -46 c1 -37 -7 -51 -18 -32 -2 4 -2 2 -1 -5 2 -6 -11 -16 -28 -22
-25 -9 -28 -9 -19 3 9 11 9 15 -1 20 -7 3 -3 3 10 0 12 -3 22 -1 22 5 0 6 -5
11 -11 11 -6 0 -9 6 -6 14 3 8 1 16 -5 18 -20 7 3 28 30 28 25 0 27 -3 27 -40z
m-3011 21 c3 -5 3 -23 0 -41 -6 -26 -11 -31 -33 -28 -21 2 -26 9 -27 30 -1 15
3 25 7 22 5 -3 9 2 9 10 0 17 35 22 44 7z m3153 -10 c-4 -15 0 -19 15 -16 11
3 18 -1 16 -7 -2 -6 -16 -13 -31 -15 -30 -4 -37 17 -14 42 17 19 20 18 14 -4z
m233 5 c0 -3 -4 -8 -10 -11 -5 -3 -10 -1 -10 4 0 6 5 11 10 11 6 0 10 -2 10
-4z m-525 -16 c3 -5 1 -10 -4 -10 -6 0 -11 5 -11 10 0 6 2 10 4 10 3 0 8 -4
11 -10z m170 0 c3 -5 1 -10 -4 -10 -6 0 -11 5 -11 10 0 6 2 10 4 10 3 0 8 -4
11 -10z m40 -20 c-3 -5 -10 -10 -16 -10 -5 0 -9 5 -9 10 0 6 7 10 16 10 8 0
12 -4 9 -10z m288 -7 c-3 -10 -10 -24 -16 -30 -9 -13 8 -18 42 -13 20 2 61
-21 61 -35 0 -19 -36 -47 -55 -43 -20 3 -29 -29 -15 -51 6 -10 12 -12 22 -5 7
6 23 11 36 12 19 1 20 -1 8 -14 -8 -8 -19 -14 -23 -13 -13 3 -43 -12 -43 -22
0 -13 -42 -59 -54 -59 -6 0 -2 7 8 15 11 8 17 15 13 15 -4 0 1 10 12 22 16 16
18 25 9 35 -6 7 -13 11 -16 9 -9 -9 -42 15 -42 30 0 8 5 12 10 9 6 -3 10 -1
10 4 0 6 8 11 18 11 13 0 14 2 4 9 -11 7 -10 9 3 15 9 3 14 10 11 15 -4 5 0
11 6 14 8 3 1 9 -14 16 -16 6 -28 12 -28 15 0 2 -3 13 -7 23 -6 16 -5 16 10 4
15 -12 17 -11 17 8 0 11 4 21 10 21 5 0 7 -8 3 -17z m-439 -6 c-3 -8 0 -25 5
-39 7 -20 15 -25 30 -21 13 3 21 1 21 -6 0 -7 -3 -10 -7 -8 -5 3 -13 -1 -20
-8 -10 -11 -10 -14 0 -18 7 -2 9 -7 6 -11 -3 -4 -19 -2 -34 4 -22 8 -26 15
-23 35 3 13 1 22 -4 19 -13 -8 3 50 16 58 15 10 16 10 10 -5z m231 -49 c3 -9
12 -15 19 -12 10 4 13 -6 12 -35 -1 -23 -2 -41 -3 -41 -12 0 -70 75 -66 86 3
9 -1 14 -11 14 -17 0 -38 -38 -29 -52 2 -5 0 -8 -6 -8 -5 0 -15 8 -21 18 -10
16 -10 16 -20 0 -6 -10 -20 -18 -31 -18 -18 0 -16 5 15 35 20 19 41 35 47 35
5 0 8 4 5 9 -4 5 6 14 21 19 23 8 31 6 45 -12 10 -11 20 -29 23 -38z m-346 26
c-9 -11 -8 -14 2 -14 9 0 6 -5 -6 -13 -20 -12 -25 -13 -47 -16 -9 -1 -8 -4 2
-11 13 -8 13 -10 -1 -10 -9 0 -19 7 -23 15 -6 16 -26 16 -38 0 -5 -6 -8 -6 -8
1 0 23 27 36 49 24 12 -6 21 -7 21 -2 0 5 12 14 26 20 15 7 22 17 18 24 -4 7
-3 8 5 4 9 -6 9 -11 0 -22z m241 10 c0 -8 -4 -12 -10 -9 -5 3 -10 1 -10 -5 0
-6 -4 -8 -10 -5 -6 4 -5 11 3 20 16 19 27 19 27 -1z m124 -6 c-3 -4 -11 -5
-19 -1 -21 7 -19 12 4 10 11 0 18 -5 15 -9z m-169 -18 c3 -5 1 -10 -4 -10 -6
0 -11 5 -11 10 0 6 2 10 4 10 3 0 8 -4 11 -10z m318 -14 c3 -8 -3 -22 -14 -32
-18 -16 -19 -16 -13 -1 3 9 10 17 15 17 4 0 6 7 3 15 -4 8 -4 15 -1 15 3 0 7
-6 10 -14z m-5013 -10 c107 -10 284 -52 418 -100 52 -19 281 -136 267 -137 -6
0 1 -5 15 -11 14 -6 33 -10 44 -9 11 2 17 -2 14 -10 -3 -8 16 -23 45 -37 27
-14 57 -38 66 -54 9 -15 24 -28 34 -28 10 0 16 -4 13 -9 -3 -5 1 -11 9 -15 8
-3 15 -14 15 -24 0 -10 5 -23 12 -30 7 -7 8 -12 4 -12 -5 0 7 -19 26 -42 32
-41 51 -70 104 -164 33 -60 124 -287 124 -312 0 -11 9 -42 21 -69 11 -26 19
-62 17 -79 -2 -17 2 -36 9 -43 8 -7 13 -32 12 -61 -1 -27 3 -56 10 -64 13 -16
9 -72 -8 -89 -5 -5 -18 -6 -28 -3 -16 7 -16 9 -3 19 8 7 16 27 17 45 2 29 0
32 -17 27 -16 -5 -20 -2 -20 15 0 13 -4 18 -11 14 -6 -3 -8 -18 -4 -33 l6 -26
-16 23 c-9 12 -13 28 -10 35 4 6 1 5 -7 -4 -7 -9 -18 -14 -25 -12 -7 3 -10 -3
-6 -15 6 -25 -25 -39 -34 -15 -4 10 1 23 13 32 25 22 27 37 5 38 -12 1 -18 -5
-17 -15 1 -11 -5 -16 -16 -14 -21 3 -23 -9 -6 -26 9 -9 7 -12 -10 -12 -19 0
-34 -20 -14 -20 4 0 13 -4 21 -9 11 -7 8 -14 -15 -36 -16 -15 -27 -30 -25 -33
3 -4 -4 -9 -14 -11 -15 -3 -14 2 9 30 23 28 26 35 14 43 -8 6 -13 17 -10 25 3
10 0 12 -12 8 -10 -4 -14 -3 -11 3 3 5 -4 14 -16 20 -17 10 -24 9 -38 -5 -9
-10 -11 -15 -4 -11 17 10 23 -7 7 -22 -12 -11 -14 -10 -14 3 0 8 -5 15 -11 15
-5 0 -8 4 -5 9 4 5 -8 12 -25 16 -19 4 -27 11 -22 16 6 6 20 5 37 -2 21 -10
32 -10 47 -1 16 10 22 9 39 -8 26 -26 34 -26 20 0 -13 25 -2 26 17 3 13 -17
14 -16 9 7 -3 14 -3 19 0 12 3 -6 10 -10 15 -7 5 4 3 12 -4 20 -8 8 -16 10
-24 4 -7 -7 -23 0 -47 22 -20 17 -36 27 -36 21 0 -5 7 -15 15 -22 38 -32 6
-28 -63 8 -20 10 -16 27 8 30 21 3 21 4 3 17 -10 7 -22 10 -28 6 -13 -11 -45
-10 -45 1 0 4 -7 8 -16 8 -14 0 -14 -3 -4 -15 7 -9 10 -18 6 -22 -3 -3 -6 -1
-6 5 0 7 -6 12 -14 12 -9 0 -12 7 -9 20 3 11 0 20 -6 20 -6 0 -11 7 -11 15 0
17 16 20 25 5 3 -5 11 -10 16 -10 6 0 8 4 5 9 -4 5 4 7 16 3 21 -5 22 -4 9 11
-15 19 -1 23 17 5 9 -9 12 -8 12 4 0 9 -10 24 -21 32 -13 9 -19 21 -16 30 4
10 -1 20 -13 26 -23 12 -25 7 -9 -22 11 -21 -1 -38 -26 -38 -5 0 -5 4 2 8 15
10 5 52 -12 52 -8 0 -21 -3 -29 -6 -13 -5 -14 -9 -5 -20 8 -10 15 -11 24 -4 9
8 15 8 20 0 3 -5 -1 -13 -10 -16 -12 -5 -13 -9 -4 -20 7 -8 9 -17 6 -21 -4 -3
-16 6 -28 21 -16 20 -24 24 -34 16 -9 -8 -15 -8 -20 0 -3 5 1 10 10 10 9 0 15
6 12 13 -2 6 -11 11 -21 9 -9 -2 -16 3 -16 9 0 8 -7 6 -19 -5 -18 -17 -20 -17
-29 0 -8 15 -12 12 -29 -21 -12 -22 -23 -33 -27 -27 -4 6 -13 9 -21 5 -8 -3
-15 0 -15 6 0 6 7 11 15 11 8 0 15 5 15 11 0 7 -10 9 -27 5 -21 -5 -24 -4 -13
4 10 7 11 10 3 11 -13 2 -27 5 -40 9 -5 1 -12 2 -16 1 -5 -1 -6 3 -2 9 5 8 11
7 21 -1 10 -9 14 -9 14 0 0 16 -29 26 -42 13 -6 -6 -21 -7 -40 -1 -17 4 -36 5
-42 2 -6 -4 -5 1 3 10 11 14 11 20 1 32 -11 13 -15 13 -21 3 -6 -8 -9 -9 -9
-2 0 6 7 17 15 24 12 10 15 10 15 -1 0 -12 2 -12 9 0 6 9 11 10 15 2 4 -6 2
-11 -3 -11 -21 0 -11 -18 14 -24 14 -4 25 -11 25 -16 0 -6 4 -10 9 -10 5 0 8
7 7 15 -1 9 -6 15 -11 14 -4 0 -12 5 -16 13 -11 17 -11 48 0 48 5 0 8 -8 7
-17 0 -10 5 -17 11 -16 7 2 15 -8 19 -22 3 -14 10 -25 16 -25 5 0 6 5 3 10 -3
6 2 10 11 10 13 0 15 -3 7 -11 -14 -14 13 -49 37 -49 9 0 22 -6 29 -12 11 -11
11 -9 1 8 -9 15 -20 20 -34 16 -18 -5 -18 -4 -6 10 15 16 40 14 40 -3 0 -5 12
-9 28 -8 15 0 21 3 15 6 -7 2 -13 11 -13 19 0 8 -6 11 -15 8 -10 -4 -13 -2
-10 8 3 8 -1 21 -10 28 -20 17 -32 5 -15 -15 16 -19 3 -20 -16 -1 -9 9 -10 17
-4 21 17 10 11 32 -9 38 -29 7 -45 -7 -26 -23 19 -16 19 -27 1 -27 -8 0 -12 6
-9 14 3 9 -3 13 -21 13 -18 0 -24 4 -20 14 9 23 -18 31 -33 10 -12 -16 -15
-17 -23 -4 -7 11 -10 11 -10 2 0 -7 -4 -10 -10 -7 -5 3 -10 3 -10 -2 0 -4 -7
-16 -14 -26 -11 -14 -18 -15 -37 -7 -22 10 -22 10 -2 6 24 -4 49 17 38 34 -3
6 4 10 17 11 46 2 51 4 56 18 3 9 0 11 -8 6 -7 -4 -16 -2 -21 6 -7 12 -9 11
-9 -1 0 -13 -1 -13 -10 0 -5 8 -10 10 -10 3 0 -6 -9 -9 -20 -6 -24 6 -25 12
-3 28 15 11 15 13 -4 19 -13 4 -34 -1 -56 -13 -34 -19 -35 -19 -30 -1 3 11 8
19 12 18 3 0 13 0 21 2 11 1 9 4 -5 9 -11 5 -31 4 -44 -1 -15 -5 -28 -5 -34 1
-6 6 -3 9 8 8 10 -1 19 4 21 11 1 7 0 8 -2 3 -6 -11 -54 10 -54 24 0 6 -5 3
-10 -5 -8 -13 -10 -12 -10 3 0 9 5 17 10 17 7 0 6 5 -1 13 -14 15 -52 21 -44
6 4 -5 1 -9 -5 -9 -7 0 -9 7 -6 15 4 10 -2 19 -17 25 -12 5 -16 9 -9 9 6 1 12
6 12 12 0 5 -4 7 -10 4 -5 -3 -10 -1 -10 5 0 8 10 10 28 6 17 -4 22 -3 14 2
-8 5 -13 12 -13 16 3 19 0 26 -10 26 -6 0 -8 -7 -5 -16 3 -8 2 -13 -3 -9 -5 3
-11 0 -13 -7 -2 -6 -10 -8 -16 -4 -7 4 -10 16 -7 27 5 14 3 17 -9 13 -9 -3
-16 -1 -16 6 0 6 5 8 10 5 6 -3 10 0 10 7 0 8 5 6 11 -5 5 -9 7 -22 4 -27 -3
-6 -2 -10 3 -10 16 0 24 33 10 42 -9 5 -7 8 7 9 11 1 23 1 27 0 4 0 5 6 2 14
-4 8 -11 16 -18 16 -6 1 -18 3 -26 4 -45 4 -66 17 -65 38 1 12 -2 32 -6 45 -7
18 -5 22 12 22 15 0 19 5 15 16 -3 9 -6 20 -6 25 0 6 -5 7 -12 3 -7 -4 -8 -3
-4 5 4 6 11 9 16 6 5 -3 11 -1 14 3 3 5 -5 14 -18 20 -18 8 -23 7 -24 -4 -1
-8 -3 -20 -4 -28 -1 -8 -9 -11 -20 -8 -17 4 -22 25 -20 97 1 17 0 17 -4 2 -5
-16 -8 -15 -26 8 -20 26 -42 26 -31 0 3 -8 0 -15 -6 -15 -6 0 -11 5 -11 10 0
7 -6 7 -20 0 -16 -9 -18 -8 -14 5 4 8 15 15 25 15 10 0 19 5 19 11 0 6 -9 8
-20 4 -12 -4 -20 -2 -20 5 0 6 4 9 9 5 5 -3 12 4 16 15 6 19 7 19 31 -5 13
-13 24 -30 24 -37 0 -9 3 -9 13 1 10 10 9 15 -5 25 -14 10 -15 15 -5 26 10 12
9 12 -4 2 -21 -15 -33 -3 -16 16 10 13 9 14 -2 8 -9 -6 -21 1 -37 20 -13 17
-23 23 -24 15 0 -8 -8 -20 -17 -28 -17 -13 -16 -14 3 -8 21 5 40 -16 27 -29
-10 -10 -35 -7 -28 4 3 6 -1 7 -9 4 -14 -6 -21 6 -17 29 1 4 -10 5 -23 1 -18
-4 -28 0 -37 15 -10 15 -16 17 -26 9 -10 -8 -12 -7 -7 6 4 11 1 16 -11 16 -14
0 -16 6 -11 28 13 53 12 66 -9 70 -18 2 -19 2 -2 -8 17 -11 17 -13 0 -43 -21
-38 -32 -47 -57 -47 -23 0 -10 16 16 22 16 3 16 5 -1 26 -16 22 -19 23 -34 8
-21 -22 -30 -20 -24 4 3 11 1 20 -4 20 -15 0 -10 -32 8 -52 22 -25 8 -36 -17
-13 -12 11 -20 13 -20 6 0 -7 -4 -10 -9 -7 -5 4 -7 -3 -4 -14 3 -11 9 -23 14
-26 5 -3 9 -13 8 -22 0 -13 -3 -11 -11 6 -7 13 -17 21 -25 18 -7 -3 -13 1 -13
9 0 23 22 65 31 59 5 -3 6 2 3 10 -3 9 -12 16 -19 16 -7 0 -16 6 -19 13 -5 10
-7 10 -12 0 -3 -7 -13 -13 -22 -13 -14 0 -15 -2 -2 -10 8 -5 11 -12 7 -17 -11
-10 -28 18 -25 42 2 13 12 21 28 23 14 2 30 8 37 13 6 6 31 10 55 9 23 -1 65
4 92 9 27 6 87 11 133 10 46 0 87 1 90 4 3 3 10 4 16 2 7 -2 41 -6 77 -9z
m4554 -11 c3 -8 1 -15 -4 -15 -6 0 -10 4 -10 9 0 5 -8 12 -17 14 -14 4 -13 5
3 6 12 0 24 -6 28 -14z m-287 -21 c20 -5 22 -12 21 -60 -2 -42 -5 -51 -15 -42
-7 5 -10 14 -7 19 3 5 1 17 -5 26 -8 15 -9 13 -7 -9 1 -15 10 -36 19 -45 8
-10 20 -30 26 -46 9 -22 8 -27 -5 -27 -12 0 -13 -4 -4 -21 7 -11 9 -23 6 -27
-8 -8 -50 38 -53 57 -1 13 1 12 12 -2 14 -20 29 -8 19 16 -6 18 -40 11 -48
-10 -7 -17 8 -48 37 -80 11 -13 18 -26 14 -29 -7 -8 -48 21 -42 29 3 4 -1 3
-7 -3 -7 -5 -19 -10 -27 -9 -11 0 -10 3 4 8 18 8 16 10 -16 26 -21 10 -40 29
-46 45 -10 26 -13 27 -52 20 -32 -6 -41 -4 -41 7 0 8 5 11 10 8 6 -3 10 0 11
7 0 10 2 10 6 1 2 -7 13 -13 24 -13 17 0 18 3 7 20 -7 11 -19 20 -26 20 -7 0
-11 4 -8 9 3 4 -3 16 -14 26 -15 14 -23 15 -33 6 -8 -6 -17 -8 -21 -4 -4 4 -4
-1 -1 -12 6 -19 6 -19 -9 -1 -14 17 -13 21 2 42 34 48 92 42 99 -10 4 -27 50
-96 65 -96 4 0 10 9 13 21 6 19 8 19 24 5 26 -24 51 -20 51 7 0 18 -2 19 -11
7 -8 -12 -9 -9 -5 13 6 23 3 27 -16 27 -19 0 -20 -2 -8 -10 12 -8 10 -10 -9
-10 -23 0 -23 1 -6 26 9 14 15 34 12 45 -7 25 17 34 60 23z m-6283 -34 c2 -14
0 -29 -5 -34 -5 -6 -9 -20 -9 -33 0 -16 -6 -23 -20 -23 -37 0 -21 -17 23 -24
23 -4 60 -16 82 -26 35 -17 41 -25 43 -54 1 -18 -2 -45 -8 -60 -9 -23 -7 -26
14 -26 79 0 106 -25 106 -99 0 -81 -89 -103 -157 -39 -29 27 -30 72 -3 100 11
12 19 23 17 24 -1 2 -22 -2 -47 -8 -33 -9 -45 -9 -48 0 -2 7 -20 12 -40 12
-55 1 -85 28 -85 79 0 34 7 49 34 77 33 35 33 35 8 29 -17 -4 -30 -1 -38 9
-11 13 -8 20 16 41 l28 26 -27 -5 c-37 -8 -35 1 5 35 43 38 103 37 111 -1z
m6511 11 c3 -5 2 -12 -3 -15 -5 -3 -9 1 -9 9 0 17 3 19 12 6z m185 5 c0 -3 -4
-8 -10 -11 -5 -3 -10 -1 -10 4 0 6 5 11 10 11 6 0 10 -2 10 -4z m125 -8 c14
-6 25 -15 25 -19 0 -5 8 -5 17 -2 12 5 11 1 -5 -15 -27 -27 -28 -44 -2 -67 11
-10 20 -24 20 -31 0 -24 20 -26 39 -3 12 15 20 19 25 11 4 -7 2 -12 -5 -12 -8
0 -10 -13 -6 -39 4 -30 1 -41 -14 -52 -14 -10 -15 -15 -6 -21 6 -4 8 -8 2 -8
-5 0 -16 4 -23 9 -11 7 -11 9 2 14 9 4 16 11 16 18 0 6 -7 9 -15 6 -8 -4 -17
-2 -20 3 -3 5 4 10 15 12 19 3 17 7 -19 43 -22 22 -40 46 -41 53 0 7 -4 11 -9
8 -5 -4 -7 3 -4 14 3 11 10 20 17 20 6 1 -1 7 -15 15 -15 8 -29 23 -32 35 -6
23 2 25 38 8z m-5368 -13 c1 -5 -1 -16 -6 -23 -7 -11 -12 -12 -29 -1 -16 10
-18 16 -10 27 12 14 40 13 45 -3z m5193 -1 c0 -8 6 -14 13 -14 7 0 14 -13 15
-30 1 -17 -3 -30 -9 -30 -6 0 -8 7 -5 16 3 8 2 12 -4 9 -6 -3 -10 1 -10 9 0 8
-9 23 -20 34 -19 18 -19 18 0 19 11 1 20 -4 20 -13z m-210 0 c0 -8 -19 -13
-24 -6 -3 5 1 9 9 9 8 0 15 -2 15 -3z m11 -17 c-10 -9 -11 -8 -5 6 3 10 9 15
12 12 3 -3 0 -11 -7 -18z m-5061 4 c0 -12 -20 -25 -27 -18 -7 7 6 27 18 27 5
0 9 -4 9 -9z m4360 -16 c0 -8 -9 -15 -20 -15 -11 0 -20 7 -20 15 0 8 9 15 20
15 11 0 20 -7 20 -15z m-4404 -22 c-10 -10 -19 5 -10 18 6 11 8 11 12 0 2 -7
1 -15 -2 -18z m5654 17 c0 -5 -4 -10 -10 -10 -5 0 -10 5 -10 10 0 6 5 10 10
10 6 0 10 -4 10 -10z m30 -10 c0 -5 7 -10 15 -10 8 0 15 -5 15 -10 0 -7 -6 -7
-19 0 -30 15 -33 12 -15 -15 10 -16 12 -25 5 -25 -14 0 -30 40 -24 58 6 14 23
16 23 2z m-5796 -45 c-21 -19 -42 -35 -46 -35 -4 0 -58 -35 -120 -78 -129 -89
-158 -102 -158 -68 0 53 158 170 270 200 90 24 99 21 54 -19z m4846 25 c0 -5
-2 -10 -4 -10 -3 0 -8 5 -11 10 -3 6 -1 10 4 10 6 0 11 -4 11 -10z m400 0 c0
-5 -4 -10 -10 -10 -5 0 -10 5 -10 10 0 6 5 10 10 10 6 0 10 -4 10 -10z m506
-2 c4 -7 4 -10 -1 -6 -4 4 -14 0 -22 -10 -10 -13 -13 -14 -11 -2 3 12 16 29
25 30 1 0 5 -6 9 -12z m-5541 -20 c-4 -13 -12 -27 -18 -33 -7 -5 -9 -6 -5 -1
4 5 3 17 -2 27 -7 12 -6 19 3 22 24 10 28 7 22 -15z m39 6 c3 -8 2 -12 -4 -9
-6 3 -10 10 -10 16 0 14 7 11 14 -7z m5646 -77 c-9 -31 -15 -37 -31 -32 -13 4
-19 2 -19 -8 0 -8 -14 -20 -32 -26 l-32 -11 22 23 c12 13 19 27 15 30 -3 4 3
7 15 7 13 0 22 6 22 15 0 8 5 15 10 15 6 0 10 5 10 11 0 7 -9 9 -21 6 -17 -5
-18 -3 -8 9 10 13 14 12 30 -2 18 -16 19 -16 19 9 0 15 -6 27 -12 27 -9 0 -8
4 2 10 20 13 26 -31 10 -83z m-5394 57 c-4 -9 2 -14 17 -14 29 0 43 -10 51
-37 4 -13 15 -23 24 -24 14 0 13 -2 -3 -8 -16 -7 -23 -1 -37 28 -13 26 -16 29
-13 11 5 -23 4 -23 -6 -5 -5 12 -20 25 -32 30 -26 12 -38 48 -12 39 9 -4 14
-13 11 -20z m4759 16 c-3 -5 -12 -10 -18 -10 -7 0 -6 4 3 10 19 12 23 12 15 0z
m235 0 c0 -5 -2 -10 -4 -10 -3 0 -8 5 -11 10 -3 6 -1 10 4 10 6 0 11 -4 11
-10z m-5060 -16 c0 -8 -4 -12 -10 -9 -5 3 -10 10 -10 16 0 5 5 9 10 9 6 0 10
-7 10 -16z m4390 -4 c0 -5 -4 -10 -10 -10 -5 0 -10 5 -10 10 0 6 5 10 10 10 6
0 10 -4 10 -10z m454 -4 c-3 -7 2 -20 10 -28 13 -14 12 -15 -11 -15 -15 0 -32
-9 -40 -19 -12 -17 -13 -16 -14 7 -1 21 -2 20 -8 -6 -5 -23 -2 -34 14 -47 17
-15 18 -17 3 -18 -9 0 -18 -6 -21 -12 -3 -9 -13 -4 -30 15 -26 26 -44 37 -32
17 3 -5 -1 -10 -9 -10 -9 0 -16 4 -16 8 0 5 -9 19 -20 32 -15 18 -17 25 -8 31
7 4 15 4 18 0 9 -14 48 -31 71 -31 19 0 21 4 16 36 l-6 36 34 -5 c24 -4 35 -1
39 9 3 8 8 14 10 14 3 0 3 -6 0 -14z m-4800 -11 c3 -9 0 -15 -9 -15 -8 0 -15
7 -15 15 0 8 4 15 9 15 5 0 11 -7 15 -15z m-344 -4 c0 -14 -18 -23 -30 -16 -6
4 -8 11 -5 16 8 12 35 12 35 0z m5334 -16 c-4 -8 -8 -15 -10 -15 -2 0 -4 7 -4
15 0 8 4 15 10 15 5 0 7 -7 4 -15z m-5073 -12 c13 -16 12 -17 -3 -4 -10 7 -18
15 -18 17 0 8 8 3 21 -13z m49 7 c0 -5 -4 -10 -10 -10 -5 0 -10 5 -10 10 0 6
5 10 10 10 6 0 10 -4 10 -10z m160 -7 c0 -10 -4 -14 -8 -8 -4 6 -11 13 -16 18
-5 4 -2 7 7 7 10 0 17 -8 17 -17z m-300 3 c0 -3 -4 -8 -10 -11 -5 -3 -10 -1
-10 4 0 6 5 11 10 11 6 0 10 -2 10 -4z m-65 -16 c3 -5 1 -10 -4 -10 -6 0 -11
5 -11 10 0 6 2 10 4 10 3 0 8 -4 11 -10z m95 -21 c0 -10 -7 -19 -15 -19 -16 0
-19 9 -9 34 8 20 24 11 24 -15z m304 -1 c6 -25 -13 -52 -21 -30 -3 6 -10 9
-16 5 -7 -3 -4 3 6 14 9 11 14 23 10 26 -3 4 -2 7 4 7 6 0 13 -10 17 -22z
m4653 7 c0 -8 -4 -12 -8 -10 -3 3 -12 -2 -19 -10 -11 -13 -10 -14 6 -9 16 6
17 5 7 -7 -10 -10 -16 -10 -25 -1 -9 9 -7 16 7 32 21 24 32 25 32 5z m-5137
-10 c0 -8 -4 -15 -10 -15 -5 0 -10 7 -10 15 0 8 5 15 10 15 6 0 10 -7 10 -15z
m387 -10 c-4 -8 -12 -15 -19 -14 -10 0 -10 2 0 6 6 2 12 12 12 21 0 8 3 13 6
9 4 -3 4 -13 1 -22z m4563 -15 c0 -11 -6 -20 -12 -20 -7 -1 -2 -7 11 -14 18
-10 30 -11 41 -4 12 8 25 6 45 -4 18 -10 24 -18 16 -22 -6 -4 -11 -2 -11 4 0
7 -5 6 -14 -2 -8 -7 -12 -17 -9 -21 3 -5 -3 -15 -13 -23 -18 -14 -18 -15 6 -8
23 6 23 6 7 -10 -9 -10 -21 -15 -26 -12 -14 9 -20 46 -8 46 7 0 3 6 -8 12 -47
28 -71 68 -52 87 17 17 27 13 27 -9z m-4713 -12 c-3 -8 -6 -5 -6 6 -1 11 2 17
5 13 3 -3 4 -12 1 -19z m4126 -2 c3 3 10 3 16 -1 21 -12 -8 -45 -40 -45 -37 0
-48 24 -23 51 16 18 20 19 30 5 6 -9 14 -13 17 -10z m-3997 -8 l19 -23 -25 20
c-14 11 -27 21 -29 22 -2 2 0 3 6 3 5 0 18 -10 29 -22z m96 -1 c22 4 22 3 -2
-11 -14 -8 -29 -15 -35 -15 -5 -1 -4 3 4 8 9 6 10 11 2 15 -6 4 -11 13 -11 19
0 7 5 5 10 -5 6 -10 18 -14 32 -11z m5294 -15 c-4 -6 -15 -9 -26 -7 -11 2 -20
-1 -20 -6 0 -6 -4 -8 -9 -5 -5 4 -11 2 -13 -3 -4 -12 -48 -24 -48 -13 0 4 15
16 33 25 30 16 30 16 5 11 -16 -4 -28 -2 -28 4 0 13 19 19 53 18 15 -1 27 3
27 8 0 6 7 3 16 -6 9 -9 13 -21 10 -26z m-5961 18 c3 -5 -1 -10 -10 -10 -9 0
-13 5 -10 10 3 6 8 10 10 10 2 0 7 -4 10 -10z m5355 0 c0 -5 -2 -10 -4 -10 -3
0 -8 5 -11 10 -3 6 -1 10 4 10 6 0 11 -4 11 -10z m-4970 -4 c0 -3 -4 -8 -10
-11 -5 -3 -10 -1 -10 4 0 6 5 11 10 11 6 0 10 -2 10 -4z m403 -30 c-9 -5 -19
-4 -26 4 -9 8 -8 10 6 4 14 -5 16 -2 10 12 -6 16 -5 17 9 4 14 -13 14 -16 1
-24z m4163 25 c-3 -5 5 -12 19 -15 14 -4 25 -11 25 -16 0 -6 7 -10 15 -10 8 0
15 -4 15 -10 0 -5 -9 -10 -20 -10 -11 0 -20 7 -20 16 0 8 -14 20 -31 26 -23 8
-27 13 -17 19 17 11 20 11 14 0z m54 3 c0 -8 -19 -13 -24 -6 -3 5 1 9 9 9 8 0
15 -2 15 -3z m-4270 -18 c-7 -7 -14 -6 -21 1 -9 9 -7 12 9 10 14 -1 18 -5 12
-11z m4068 2 c7 -7 12 -25 12 -40 0 -21 6 -31 25 -38 29 -11 75 3 75 22 0 9 3
8 10 -2 8 -13 10 -13 10 2 0 14 5 16 22 9 12 -4 22 -15 24 -24 1 -10 -1 -15
-6 -12 -4 3 -13 -1 -19 -9 -7 -8 -8 -16 -4 -18 4 -3 2 -3 -5 -1 -8 2 -25 6
-39 10 -17 4 -24 2 -19 -5 3 -6 2 -13 -3 -17 -6 -3 -8 -12 -4 -20 6 -18 33
-20 33 -3 0 6 3 8 6 5 4 -4 2 -13 -5 -21 -9 -11 -8 -17 3 -29 13 -12 13 -17 2
-26 -10 -8 -16 -7 -26 4 -7 8 -17 15 -23 15 -5 0 -2 -9 8 -20 10 -11 15 -23
12 -27 -4 -3 -7 -1 -7 5 0 6 -9 14 -20 17 -11 3 -20 14 -21 23 0 10 -3 12 -5
5 -3 -7 -13 -10 -22 -7 -18 6 0 -11 43 -41 14 -9 15 -13 5 -11 -9 1 -33 17
-53 36 -39 35 -71 47 -82 30 -3 -6 1 -7 9 -4 11 4 16 0 16 -10 0 -9 -7 -16
-16 -16 -10 0 -14 -6 -11 -14 3 -7 0 -19 -6 -26 -9 -10 -9 -11 0 -6 6 3 14 2
18 -4 4 -6 -5 -10 -22 -10 -24 -1 -25 -2 -11 -11 12 -7 24 -6 37 1 19 10 41
-3 27 -17 -3 -3 2 -22 10 -41 14 -35 14 -36 -3 -19 -46 44 -75 67 -88 67 -7 0
-20 6 -27 13 -34 31 -62 51 -50 36 10 -14 10 -18 -5 -23 -10 -4 -14 -4 -10 0
4 4 2 13 -4 21 -9 10 -15 11 -26 1 -11 -9 -16 -9 -23 2 -12 19 -22 8 -14 -14
4 -9 12 -15 19 -12 6 2 18 0 26 -5 10 -6 8 -9 -10 -9 -24 0 -24 -1 -6 -14 11
-8 25 -12 31 -9 7 2 14 0 18 -5 3 -5 -5 -8 -17 -7 -12 1 -28 -2 -34 -8 -7 -5
-27 -11 -45 -12 -19 -2 -32 -8 -30 -15 1 -6 -3 -8 -9 -5 -8 5 -9 -9 -5 -51 3
-33 7 -72 9 -87 1 -21 6 -27 20 -23 19 5 84 -11 90 -22 2 -4 7 -20 11 -36 5
-22 4 -27 -7 -23 -15 6 -45 -24 -67 -67 -11 -22 -12 -30 -3 -33 7 -2 9 -12 6
-20 -5 -13 -2 -15 11 -10 10 4 15 3 11 -3 -11 -18 -26 -10 -36 19 -8 22 -15
28 -27 24 -14 -5 -14 -4 1 8 21 17 14 45 -11 54 -10 2 -18 16 -18 31 -3 36
-11 40 -44 21 -21 -13 -31 -14 -36 -6 -4 7 -3 9 2 6 6 -3 16 -2 24 3 15 9 6
21 -40 53 -25 17 -114 24 -124 9 -2 -4 -20 -7 -40 -6 -25 1 -36 -2 -36 -12 0
-8 -9 -14 -21 -14 -31 0 -18 22 21 35 l33 11 -32 30 c-28 27 -30 32 -17 43 8
7 24 10 36 6 19 -6 24 -20 21 -57 -3 -27 29 -22 55 10 13 15 24 36 24 46 0 20
0 20 14 0 13 -17 12 -20 -7 -28 -20 -7 -18 -9 18 -20 39 -12 40 -11 50 15 6
15 14 31 18 35 4 5 5 1 2 -8 -4 -9 -2 -19 4 -23 6 -3 11 -14 11 -23 0 -13 -2
-13 -15 4 -9 12 -14 14 -15 5 0 -12 73 -91 85 -91 3 0 1 9 -5 20 -7 13 -7 20
-1 20 6 0 8 12 5 28 -2 15 -6 45 -8 67 -2 22 -7 48 -11 58 -6 14 -2 17 18 17
24 0 45 16 35 25 -2 3 -28 6 -56 8 -37 2 -52 -1 -53 -10 -1 -7 -3 -17 -4 -23
-1 -5 -3 -13 -4 -16 0 -3 -8 2 -18 11 -14 14 -14 18 -2 25 10 7 11 12 3 20 -8
8 -16 7 -28 -5 -17 -18 -36 -12 -36 10 0 18 57 43 90 39 14 -1 25 -3 25 -4 0
-1 9 -3 19 -5 11 -2 30 -6 43 -10 13 -3 23 -1 23 4 0 5 3 17 7 27 5 13 3 15
-8 9 -12 -8 -12 -6 0 9 10 12 22 15 40 11 l26 -6 -24 17 c-24 17 -24 17 -3 25
15 6 35 1 67 -18 25 -14 49 -23 52 -20 3 3 -10 13 -28 21 l-34 14 30 2 c45 3
41 2 115 30 19 7 56 13 81 13 39 0 46 3 42 18 -4 14 -12 16 -40 12 -32 -6 -35
-4 -29 15 5 14 1 27 -13 41 -35 35 -27 60 20 70 3 0 10 -4 17 -11z m532 2 c0
-5 -4 -10 -10 -10 -5 0 -10 5 -10 10 0 6 5 10 10 10 6 0 10 -4 10 -10z m-4710
-38 c0 -8 -1 -13 -3 -11 -1 2 -9 12 -16 22 -12 15 -12 17 3 11 9 -3 16 -13 16
-22z m5334 4 c-11 -5 -29 -11 -41 -12 -18 -1 -21 2 -12 12 6 8 15 11 20 8 5
-3 9 -1 9 4 0 6 10 8 21 5 20 -6 20 -6 3 -17z m-5453 -4 c-7 -2 -18 1 -23 6
-8 8 -4 9 13 5 13 -4 18 -8 10 -11z m84 8 c3 -6 -1 -7 -9 -4 -18 7 -21 14 -7
14 6 0 13 -4 16 -10z m170 -8 c-3 -3 -11 0 -18 7 -9 10 -8 11 6 5 10 -3 15 -9
12 -12z m5055 3 c5 3 17 1 27 -4 10 -5 26 -12 37 -15 11 -4 16 -12 12 -21 -3
-8 -1 -27 4 -41 12 -30 5 -45 -15 -38 -11 5 -12 11 -5 24 8 15 4 25 -20 48
-29 29 -51 32 -27 4 10 -13 9 -14 -3 -10 -19 6 -41 48 -33 62 4 6 8 6 11 -2 2
-7 8 -10 12 -7z m-5820 -5 c0 -5 -7 -13 -16 -18 -9 -5 -15 -13 -14 -18 1 -5
-3 -10 -9 -12 -14 -5 -14 14 -1 39 11 19 40 27 40 9z m654 -6 c3 -8 2 -12 -4
-9 -6 3 -10 10 -10 16 0 14 7 11 14 -7z m49 1 c-4 13 -3 16 5 11 18 -11 14
-36 -6 -36 -9 0 -23 9 -30 20 -12 21 -12 21 13 4 24 -16 25 -16 18 1z m-983 1
c0 -3 -4 -8 -10 -11 -5 -3 -10 -1 -10 4 0 6 5 11 10 11 6 0 10 -2 10 -4z
m5540 -31 c0 -5 -5 -3 -10 5 -5 8 -10 20 -10 25 0 6 5 3 10 -5 5 -8 10 -19 10
-25z m527 18 c-4 -3 -2 -12 4 -19 13 -16 0 -24 -25 -15 -17 7 -17 8 -2 24 10
9 20 17 23 17 4 0 3 -3 0 -7z m-5217 -23 c0 -5 -2 -10 -4 -10 -3 0 -8 5 -11
10 -3 6 -1 10 4 10 6 0 11 -4 11 -10z m225 0 c3 -5 2 -10 -4 -10 -5 0 -13 5
-16 10 -3 6 -2 10 4 10 5 0 13 -4 16 -10z m-420 -10 c3 -6 -1 -7 -9 -4 -18 7
-21 14 -7 14 6 0 13 -4 16 -10z m345 0 c0 -5 -7 -7 -15 -4 -8 4 -15 8 -15 10
0 2 7 4 15 4 8 0 15 -4 15 -10z m112 -22 c-7 -7 -12 -8 -12 -2 0 14 12 26 19
19 2 -3 -1 -11 -7 -17z m4931 -26 c-4 -9 -15 -6 -44 10 -25 14 -35 24 -28 29
16 10 77 -23 72 -39z m-5058 28 c4 -6 10 -8 15 -5 9 6 25 -13 17 -21 -6 -7
-57 18 -57 28 0 11 18 10 25 -2z m100 -11 c-4 -5 -11 -7 -16 -4 -5 4 -9 2 -9
-2 0 -12 53 -41 66 -36 6 2 14 -3 17 -12 4 -8 1 -15 -6 -15 -7 0 -3 -7 7 -15
11 -8 15 -15 8 -15 -6 0 -26 15 -44 32 -18 18 -36 32 -40 30 -5 -1 -8 3 -8 8
0 6 -7 10 -15 10 -29 0 -15 25 15 27 18 1 28 -2 25 -8z m-545 -29 c0 -5 -4
-10 -9 -10 -6 0 -13 5 -16 10 -3 6 1 10 9 10 9 0 16 -4 16 -10z m237 4 c-3 -3
-12 -4 -19 -1 -8 3 -5 6 6 6 11 1 17 -2 13 -5z m5349 -19 c3 -8 14 -17 25 -20
24 -8 25 -35 1 -35 -23 0 -66 45 -57 59 9 15 25 14 31 -4z m-1578 -38 l18 -32
-40 4 c-42 4 -56 14 -56 43 0 17 25 28 47 20 7 -2 20 -18 31 -35z m-3661 26
c-4 -3 -1 -13 6 -22 11 -14 10 -14 -5 -2 -16 12 -16 31 -1 31 4 0 3 -3 0 -7z
m107 -9 c4 -9 4 -19 1 -22 -3 -3 -5 0 -5 6 0 7 -7 12 -15 12 -8 0 -15 5 -15
10 0 16 27 11 34 -6z m3736 -14 c0 -12 -21 -17 -47 -12 -22 4 -30 21 -17 35 8
7 64 -13 64 -23z m-3840 -45 c0 0 -8 -1 -18 -1 -10 0 -19 8 -19 17 -2 16 0 17
18 1 10 -9 19 -17 19 -17z m4176 9 c-3 -7 2 -20 10 -29 9 -8 11 -15 5 -15 -5
0 -14 6 -18 14 -4 7 -15 16 -23 19 -12 4 -12 6 2 6 12 1 15 6 11 18 -4 11 -3
14 6 9 7 -5 10 -14 7 -22z m-4696 -4 c0 -5 -5 -10 -11 -10 -5 0 -7 5 -4 10 3
6 8 10 11 10 2 0 4 -4 4 -10z m764 -2 c-5 -8 -2 -9 9 -5 10 4 24 10 32 13 8 3
15 1 15 -6 0 -6 -4 -8 -10 -5 -5 3 -10 1 -10 -5 0 -6 -4 -8 -10 -5 -19 11 -10
-7 12 -26 11 -11 19 -21 17 -23 -2 -3 -21 11 -41 29 -31 29 -34 38 -10 44 2 1
0 -4 -4 -11z m3095 -14 c36 -30 39 -59 9 -91 -29 -31 -69 -29 -108 3 -25 22
-30 32 -25 53 7 33 40 61 70 61 13 0 37 -12 54 -26z m2046 8 c-3 -3 -11 0 -18
7 -9 10 -8 11 6 5 10 -3 15 -9 12 -12z m-5315 4 c0 -3 -4 -8 -10 -11 -5 -3
-10 -1 -10 4 0 6 5 11 10 11 6 0 10 -2 10 -4z m3609 -27 c-16 -10 -23 -4 -14
10 3 6 11 8 17 5 6 -4 5 -9 -3 -15z m1682 4 c13 -15 12 -16 -8 -11 -13 4 -23
2 -23 -3 0 -5 -7 -9 -15 -9 -15 0 -21 21 -8 33 12 12 40 7 54 -10z m-5606 -3
c3 -5 1 -10 -4 -10 -6 0 -11 5 -11 10 0 6 2 10 4 10 3 0 8 -4 11 -10z m486 -7
c13 -16 12 -17 -3 -4 -10 7 -18 15 -18 17 0 8 8 3 21 -13z m-1061 -23 c-37
-51 -53 -49 -28 5 6 14 20 25 30 25 19 0 19 -1 -2 -30z m624 14 c3 -8 2 -12
-4 -9 -6 3 -10 10 -10 16 0 14 7 11 14 -7z m386 -44 c0 -5 -2 -10 -4 -10 -3 0
-8 5 -11 10 -3 6 -1 10 4 10 6 0 11 -4 11 -10z m85 -8 c-3 -3 -11 0 -18 7 -9
10 -8 11 6 5 10 -3 15 -9 12 -12z m5105 -2 c0 -11 -7 -20 -15 -20 -8 0 -15 9
-15 20 0 11 7 20 15 20 8 0 15 -9 15 -20z m-5060 -19 c-6 -12 -15 -21 -21 -21
-6 0 -3 7 5 16 9 8 16 20 16 26 0 6 3 9 6 6 3 -4 1 -16 -6 -27z m3407 -11 c4
-12 3 -12 -5 -1 -6 9 -12 10 -16 2 -4 -6 2 -16 14 -23 11 -7 20 -19 20 -27 0
-9 -9 -4 -25 13 -13 14 -31 26 -40 26 -16 0 -20 12 -8 24 12 12 56 2 60 -14z
m93 -11 c0 -5 -7 -9 -15 -9 -15 0 -20 12 -9 23 8 8 24 -1 24 -14z m-3965 -17
c-3 -3 -11 0 -18 7 -9 10 -8 11 6 5 10 -3 15 -9 12 -12z m3925 -3 c0 -5 -4 -9
-10 -9 -5 0 -10 7 -10 16 0 8 5 12 10 9 6 -3 10 -10 10 -16z m-3466 0 c-5 -8
1 -10 19 -7 14 3 32 1 39 -3 15 -10 1 -13 -39 -9 -13 1 -23 -3 -23 -9 0 -6 -5
-11 -12 -11 -9 0 -9 3 -1 11 6 6 9 18 6 25 -3 8 0 14 7 14 6 0 8 -5 4 -11z
m-1014 -19 c0 -5 -5 -10 -11 -10 -5 0 -7 5 -4 10 3 6 8 10 11 10 2 0 4 -4 4
-10z m-340 -10 c0 -5 -4 -10 -10 -10 -5 0 -10 5 -10 10 0 6 5 10 10 10 6 0 10
-4 10 -10z m750 -9 c0 -5 -7 -12 -16 -15 -14 -5 -15 -4 -4 9 14 17 20 19 20 6z
m680 -1 c0 -5 -2 -10 -4 -10 -3 0 -8 5 -11 10 -3 6 -1 10 4 10 6 0 11 -4 11
-10z m3741 -13 c-13 -13 -26 -3 -16 12 3 6 11 8 17 5 6 -4 6 -10 -1 -17z
m-3695 -23 c-3 -9 -11 -12 -18 -8 -8 5 -9 2 -5 -9 3 -9 2 -19 -3 -22 -6 -4
-10 -1 -10 5 0 6 -6 8 -12 4 -7 -4 -5 2 5 14 11 11 16 25 13 31 -3 5 2 11 11
13 21 4 27 -6 19 -28z m3379 16 c3 -5 1 -10 -4 -10 -6 0 -11 5 -11 10 0 6 2
10 4 10 3 0 8 -4 11 -10z m-3495 -10 c0 -5 -5 -10 -11 -10 -5 0 -7 5 -4 10 3
6 8 10 11 10 2 0 4 -4 4 -10z m-213 -6 c-3 -3 -12 -4 -19 -1 -8 3 -5 6 6 6 11
1 17 -2 13 -5z m238 -4 c3 -5 1 -10 -4 -10 -6 0 -11 5 -11 10 0 6 2 10 4 10 3
0 8 -4 11 -10z m143 -28 c-10 -2 -18 -8 -18 -14 0 -6 -2 -9 -5 -6 -12 12 7 37
23 30 16 -6 15 -7 0 -10z m107 8 c-3 -5 -10 -10 -16 -10 -5 0 -9 5 -9 10 0 6
7 10 16 10 8 0 12 -4 9 -10z m-145 -25 c0 -8 -2 -15 -4 -15 -2 0 -6 7 -10 15
-3 8 -1 15 4 15 6 0 10 -7 10 -15z m-143 -1 c-3 -3 -12 -4 -19 -1 -8 3 -5 6 6
6 11 1 17 -2 13 -5z m203 -4 c13 -8 13 -10 -2 -10 -9 0 -20 5 -23 10 -8 13 5
13 25 0z m-760 -14 c0 -3 -4 -8 -10 -11 -5 -3 -10 -1 -10 4 0 6 5 11 10 11 6
0 10 -2 10 -4z m546 -9 c4 -4 0 -7 -9 -7 -9 0 -18 4 -21 9 -7 10 20 9 30 -2z
m304 9 c0 -11 -19 -15 -25 -6 -3 5 1 10 9 10 9 0 16 -2 16 -4z m3480 -25 c12
-24 -4 -38 -24 -22 -7 6 -16 7 -21 3 -4 -4 -2 3 4 16 14 27 27 28 41 3z
m-3502 -9 c2 -7 -1 -12 -8 -12 -6 0 -9 4 -6 9 4 5 1 12 -4 14 -6 3 -5 4 2 3 6
-1 14 -8 16 -14z m-258 -1 c0 -5 -11 -8 -25 -7 -33 1 -33 16 0 16 14 0 25 -4
25 -9z m180 5 c0 -2 -7 -6 -15 -10 -8 -3 -15 -1 -15 4 0 6 7 10 15 10 8 0 15
-2 15 -4z m3094 -12 c3 -8 2 -12 -4 -9 -6 3 -10 10 -10 16 0 14 7 11 14 -7z
m-3064 -9 c0 -8 -2 -15 -4 -15 -2 0 -6 7 -10 15 -3 8 -1 15 4 15 6 0 10 -7 10
-15z m2931 -16 c5 -11 16 -19 24 -19 23 0 18 -18 -7 -26 -13 -4 -24 -2 -26 5
-2 6 -12 11 -23 11 -24 0 -35 25 -19 45 14 17 37 10 51 -16z m202 14 c24 -7
22 -22 -3 -20 -12 1 -29 10 -38 21 -16 18 -16 19 3 12 11 -5 28 -11 38 -13z
m-3299 -9 c3 -8 2 -12 -4 -9 -6 3 -10 10 -10 16 0 14 7 11 14 -7z m63 -2 c7
-4 9 -13 5 -19 -6 -9 -11 -6 -20 7 -13 21 -6 26 15 12z m-382 -12 c3 -6 -1 -7
-9 -4 -18 7 -21 14 -7 14 6 0 13 -4 16 -10z m3755 -5 c16 -19 0 -19 -26 0 -16
12 -16 14 -3 15 9 0 22 -7 29 -15z m-3585 -5 c-4 -6 7 -10 27 -10 18 0 40 -5
48 -11 12 -9 12 -10 -4 -5 -15 5 -17 2 -13 -14 3 -11 0 -20 -6 -20 -7 -1 -6
-5 3 -13 8 -7 21 -20 29 -30 13 -17 13 -17 -12 -6 -15 7 -27 16 -27 21 0 5 -9
6 -20 3 -12 -4 -20 -2 -20 5 0 8 -6 8 -21 0 -11 -7 -23 -9 -27 -6 -3 3 0 6 6
6 6 0 11 8 11 18 0 14 7 60 10 70 1 1 6 2 12 2 5 0 7 -4 4 -10z m260 0 c3 -6
-1 -7 -9 -4 -18 7 -21 14 -7 14 6 0 13 -4 16 -10z m3072 4 c13 -4 20 -10 17
-15 -3 -5 3 -9 12 -9 14 0 15 -3 6 -12 -8 -8 -15 -8 -26 1 -10 8 -16 9 -21 1
-3 -5 -13 -10 -21 -10 -8 0 -12 5 -9 10 4 6 11 8 16 5 5 -4 9 -1 9 4 0 6 -4
11 -10 11 -5 0 -10 5 -10 10 0 11 6 12 37 4z m-2972 -33 c-6 -5 -25 10 -25 20
0 5 6 4 14 -3 8 -7 12 -15 11 -17z m3510 9 c3 -6 -1 -7 -9 -4 -18 7 -21 14 -7
14 6 0 13 -4 16 -10z m-88 -15 c0 -8 -4 -12 -9 -9 -5 3 -6 10 -3 15 9 13 12
11 12 -6z m53 11 c0 -2 -7 -9 -15 -16 -13 -11 -14 -10 -9 4 5 14 24 23 24 12z
m-3520 -26 c0 -5 -2 -10 -4 -10 -3 0 -8 5 -11 10 -3 6 -1 10 4 10 6 0 11 -4
11 -10z m2950 0 c0 -5 -10 -10 -22 -10 -19 0 -20 2 -8 10 19 13 30 13 30 0z
m130 0 c0 -5 -4 -10 -10 -10 -5 0 -10 5 -10 10 0 6 5 10 10 10 6 0 10 -4 10
-10z m-3530 -10 c0 -5 -4 -10 -10 -10 -5 0 -10 5 -10 10 0 6 5 10 10 10 6 0
10 -4 10 -10z m395 0 c3 -5 1 -10 -4 -10 -6 0 -11 5 -11 10 0 6 2 10 4 10 3 0
8 -4 11 -10z m4792 -29 c27 -32 35 -81 17 -99 -8 -7 -14 -23 -15 -35 0 -21 -1
-21 -10 -2 -6 11 -29 29 -52 40 -51 24 -60 59 -27 105 26 36 52 33 87 -9z
m-5107 19 c0 -5 -4 -10 -10 -10 -5 0 -10 5 -10 10 0 6 5 10 10 10 6 0 10 -4
10 -10z m584 -16 c9 -24 7 -27 -9 -10 -17 17 -19 26 -6 26 5 0 12 -7 15 -16z
m1754 2 c43 -22 59 -47 67 -103 5 -41 4 -53 -7 -53 -19 0 -179 100 -185 116
-2 7 0 22 7 33 13 25 76 29 118 7z m1029 -18 c20 -19 21 -23 8 -31 -11 -6 -24
0 -45 23 -17 18 -30 34 -30 35 0 11 47 -8 67 -27z m-3320 -10 c-3 -8 -6 -5 -6
6 -1 11 2 17 5 13 3 -3 4 -12 1 -19z m739 5 c7 -10 14 -26 14 -35 0 -17 13
-22 50 -19 10 0 11 -1 3 -5 -14 -6 -18 -26 -5 -21 4 1 8 -1 10 -5 5 -17 1 -26
-14 -32 -13 -5 -14 -3 -6 6 13 17 -4 42 -36 52 -12 4 -20 11 -17 15 2 5 -2 17
-10 27 -8 10 -15 22 -15 27 0 13 12 8 26 -10z m-691 -3 c3 -5 1 -10 -4 -10 -6
0 -11 5 -11 10 0 6 2 10 4 10 3 0 8 -4 11 -10z m638 4 c-7 -3 -9 -12 -6 -21 4
-11 2 -14 -5 -9 -18 11 -14 36 6 35 9 0 12 -3 5 -5z m-993 -25 c0 -6 -4 -7
-10 -4 -5 3 -10 11 -10 16 0 6 5 7 10 4 6 -3 10 -11 10 -16z m95 11 c3 -5 1
-10 -4 -10 -6 0 -11 5 -11 10 0 6 2 10 4 10 3 0 8 -4 11 -10z m62 4 c-3 -3
-12 -4 -19 -1 -8 3 -5 6 6 6 11 1 17 -2 13 -5z m388 -4 c3 -5 1 -10 -4 -10 -6
0 -11 5 -11 10 0 6 2 10 4 10 3 0 8 -4 11 -10z m195 0 c0 -5 -2 -10 -4 -10 -3
0 -8 5 -11 10 -3 6 -1 10 4 10 6 0 11 -4 11 -10z m109 -24 c-2 -1 -17 1 -34 5
-16 4 -22 7 -12 8 9 0 17 6 17 12 0 6 7 3 16 -6 9 -9 15 -17 13 -19z m-5440
10 c62 -33 80 -108 36 -151 -28 -29 -45 -31 -85 -10 -54 28 -77 107 -44 153
18 26 52 28 93 8z m4451 -1 c0 -8 -2 -15 -4 -15 -2 0 -6 7 -10 15 -3 8 -1 15
4 15 6 0 10 -7 10 -15z m908 -16 c-3 -8 -7 -3 -11 10 -4 17 -3 21 5 13 5 -5 8
-16 6 -23z m129 5 c2 -13 1 -15 -4 -4 -3 8 -11 19 -17 23 -7 6 -6 7 4 4 8 -2
16 -12 17 -23z m128 16 c3 -5 1 -10 -4 -10 -6 0 -11 5 -11 10 0 6 2 10 4 10 3
0 8 -4 11 -10z m70 0 c3 -5 -1 -10 -10 -10 -9 0 -13 5 -10 10 3 6 8 10 10 10
2 0 7 -4 10 -10z m2982 -3 c0 -7 -8 -14 -18 -14 -15 -1 -16 1 -6 12 15 18 24
19 24 2z m-3817 -7 c0 -5 -4 -10 -9 -10 -6 0 -13 5 -16 10 -3 6 1 10 9 10 9 0
16 -4 16 -10z m915 0 c3 -5 2 -10 -4 -10 -5 0 -13 5 -16 10 -3 6 -2 10 4 10 5
0 13 -4 16 -10z m1195 -17 c0 -10 -9 -29 -20 -43 -11 -14 -20 -33 -20 -42 0
-22 -14 -23 -34 -2 -14 14 -14 19 0 52 8 20 20 40 27 44 22 14 47 9 47 -9z
m-2190 -14 c0 -4 -7 -6 -15 -3 -8 4 -15 10 -15 15 0 4 7 6 15 3 8 -4 15 -10
15 -15z m850 9 c0 -4 -6 -8 -14 -8 -8 0 -16 -6 -19 -12 -3 -7 -4 -3 -4 9 1 14
7 21 19 20 10 -1 18 -5 18 -9z m-66 -24 c3 -8 2 -12 -4 -9 -6 3 -10 10 -10 16
0 14 7 11 14 -7z m-940 -9 c3 -8 1 -15 -4 -15 -6 0 -10 7 -10 15 0 8 2 15 4
15 2 0 6 -7 10 -15z m884 -10 c-3 -3 -9 2 -12 12 -6 14 -5 15 5 6 7 -7 10 -15
7 -18z m162 15 c8 -5 11 -12 8 -16 -4 -3 -14 1 -23 10 -18 17 -9 21 15 6z
m-1108 -22 c-7 -7 -12 -8 -12 -2 0 14 12 26 19 19 2 -3 -1 -11 -7 -17z m354 2
c9 0 12 -5 9 -10 -8 -13 -35 6 -34 24 0 7 2 6 6 -1 2 -7 11 -13 19 -13z m54
13 c0 -17 -19 -37 -27 -29 -4 5 -2 11 5 13 6 3 10 9 6 14 -3 5 0 9 5 9 6 0 11
-3 11 -7z m-244 -29 c1 -9 5 -23 8 -31 6 -14 8 -14 24 1 10 9 22 16 25 16 12
0 7 -21 -8 -37 -13 -12 -18 -13 -33 -2 -31 24 -53 49 -42 49 5 0 10 8 10 17 0
19 13 9 16 -13z m834 5 c0 -11 -3 -11 -24 -3 -23 9 -20 23 4 17 11 -3 20 -9
20 -14z m-530 7 c0 -3 -4 -8 -10 -11 -5 -3 -10 -1 -10 4 0 6 5 11 10 11 6 0
10 -2 10 -4z m-715 -16 c3 -5 -1 -10 -10 -10 -9 0 -13 5 -10 10 3 6 8 10 10
10 2 0 7 -4 10 -10z m315 0 c0 -5 -2 -10 -4 -10 -3 0 -8 5 -11 10 -3 6 -1 10
4 10 6 0 11 -4 11 -10z m364 -14 c-3 -9 -10 -13 -16 -10 -5 3 -4 12 3 20 15
18 22 13 13 -10z m-329 -36 c-4 -6 -13 -4 -22 6 -14 13 -14 17 -2 24 15 10 34
-14 24 -30z m439 25 c3 -8 1 -15 -4 -15 -6 0 -10 7 -10 15 0 8 2 15 4 15 2 0
6 -7 10 -15z m411 4 c4 -5 -3 -9 -14 -9 -26 0 -35 15 -11 17 11 1 22 -2 25 -8z
m1723 -5 c27 -19 28 -32 2 -54 -15 -13 -29 -16 -53 -11 -44 9 -49 44 -10 65
35 19 34 19 61 0z m-2798 2 c0 -3 -4 -8 -10 -11 -5 -3 -10 -1 -10 4 0 6 5 11
10 11 6 0 10 -2 10 -4z m790 0 c0 -3 -4 -8 -10 -11 -5 -3 -10 -1 -10 4 0 6 5
11 10 11 6 0 10 -2 10 -4z m190 -6 c0 -5 -2 -10 -4 -10 -3 0 -8 5 -11 10 -3 6
-1 10 4 10 6 0 11 -4 11 -10z m37 4 c-3 -3 -12 -4 -19 -1 -8 3 -5 6 6 6 11 1
17 -2 13 -5z m-907 -14 c0 -5 -8 -10 -17 -10 -15 0 -16 2 -3 10 19 12 20 12
20 0z m1170 -6 c0 -12 -4 -12 -20 -4 -11 6 -20 12 -20 13 0 2 9 3 20 4 12 1
20 -4 20 -13z m94 -3 c13 -14 14 -21 5 -27 -7 -4 -10 -3 -6 3 8 13 -38 34 -60
27 -15 -5 -16 -4 -3 5 22 16 45 13 64 -8z m-1004 -16 c0 -8 -7 -15 -16 -15
-14 0 -14 3 -4 15 7 8 14 15 16 15 2 0 4 -7 4 -15z m83 9 c7 -8 -3 -34 -13
-34 -4 0 -10 9 -13 20 -5 19 12 28 26 14z m77 -4 c8 -5 11 -10 5 -10 -5 0 -17
5 -25 10 -8 5 -10 10 -5 10 6 0 17 -5 25 -10z m2096 -5 c-3 -9 0 -15 9 -15 28
0 14 -30 -23 -49 -28 -15 -52 0 -52 33 0 29 18 46 48 46 17 0 23 -4 18 -15z
m1069 -15 c-5 -8 -11 -8 -17 -2 -6 6 -7 16 -3 22 5 8 11 8 17 2 6 -6 7 -16 3
-22z m-4454 -13 c-8 -8 -11 -7 -11 4 0 20 13 34 18 19 3 -7 -1 -17 -7 -23z
m1417 12 c7 -12 11 -24 8 -27 -6 -6 -35 27 -36 41 0 14 15 7 28 -14z m672 11
c0 -5 -2 -10 -4 -10 -3 0 -8 5 -11 10 -3 6 -1 10 4 10 6 0 11 -4 11 -10z
m2058 -2 c5 -7 10 -26 10 -42 0 -15 4 -31 8 -35 5 -3 17 -18 27 -33 20 -32 33
-35 59 -11 17 15 18 15 18 -5 0 -12 -4 -22 -9 -22 -5 0 -12 -8 -15 -18 -8 -25
-40 -21 -71 8 -19 18 -25 33 -25 67 0 37 -4 45 -25 53 -28 11 -31 20 -13 38
15 15 23 15 36 0z m-6856 -11 c3 4 3 3 2 -4 -2 -7 1 -15 6 -18 19 -12 11 -33
-10 -28 -11 3 -20 11 -20 18 0 8 -3 22 -7 32 -6 15 -4 16 9 5 9 -7 18 -9 20
-5z m2506 -10 c4 -20 -25 -34 -40 -19 -15 15 -1 44 19 40 10 -2 19 -11 21 -21z
m1092 13 c0 -5 -2 -10 -4 -10 -3 0 -8 5 -11 10 -3 6 -1 10 4 10 6 0 11 -4 11
-10z m100 0 c0 -5 -4 -10 -10 -10 -5 0 -10 5 -10 10 0 6 5 10 10 10 6 0 10 -4
10 -10z m88 -3 c15 6 15 5 3 -10 -12 -15 -9 -21 10 -19 4 1 4 -9 1 -21 -5 -18
-7 -19 -10 -4 -2 10 -13 17 -28 17 -13 0 -24 5 -24 10 0 6 5 10 10 10 6 0 10
8 11 18 0 9 3 12 5 5 3 -7 13 -9 22 -6z m732 9 c0 -2 -7 -7 -16 -10 -8 -3 -12
-2 -9 4 6 10 25 14 25 6z m180 0 c0 -3 -4 -8 -10 -11 -5 -3 -10 -1 -10 4 0 6
5 11 10 11 6 0 10 -2 10 -4z m150 -46 c0 -4 7 -7 16 -6 9 0 18 -5 20 -12 1 -7
0 -8 -3 -2 -2 5 -10 7 -16 3 -26 -16 -45 -10 -41 14 2 13 0 23 -6 23 -5 0 -10
7 -10 17 0 13 4 11 20 -7 11 -13 20 -26 20 -30z m90 33 c0 -18 -27 -16 -33 1
-4 10 0 14 14 13 10 -1 19 -7 19 -14z m-172 -18 c-3 -3 -9 2 -12 12 -6 14 -5
15 5 6 7 -7 10 -15 7 -18z m-1338 5 c0 -5 -5 -10 -11 -10 -5 0 -7 5 -4 10 3 6
8 10 11 10 2 0 4 -4 4 -10z m140 0 c0 -5 -4 -10 -10 -10 -5 0 -10 5 -10 10 0
6 5 10 10 10 6 0 10 -4 10 -10z m279 1 c7 -5 9 -11 4 -14 -4 -3 -17 1 -28 9
-21 16 0 20 24 5z m3193 -8 c24 -21 24 -48 1 -38 -10 4 -31 12 -47 18 -27 9
-28 11 -11 24 24 17 35 17 57 -4z m-2982 3 c0 -2 -7 -6 -15 -10 -8 -3 -15 -1
-15 4 0 6 7 10 15 10 8 0 15 -2 15 -4z m200 -6 c0 -5 -4 -10 -10 -10 -5 0 -10
5 -10 10 0 6 5 10 10 10 6 0 10 -4 10 -10z m490 0 c0 -5 -4 -10 -10 -10 -5 0
-10 5 -10 10 0 6 5 10 10 10 6 0 10 -4 10 -10z m-1080 -4 c0 -3 -4 -8 -10 -11
-5 -3 -10 -1 -10 4 0 6 5 11 10 11 6 0 10 -2 10 -4z m60 -46 c5 0 12 5 15 10
3 6 13 10 21 10 8 0 14 -4 14 -10 0 -5 -7 -10 -15 -10 -8 0 -15 -4 -15 -10 0
-5 -6 -10 -13 -10 -7 0 -23 -9 -35 -20 -28 -27 -40 -25 -38 4 0 13 3 24 6 24
35 -2 47 4 45 25 -1 12 0 14 2 5 2 -10 8 -18 13 -18z m193 28 c3 -8 -5 -14
-19 -14 -24 -2 -31 6 -17 19 11 11 30 8 36 -5z m664 -3 c0 -8 -4 -12 -9 -9 -4
3 -8 9 -8 15 0 5 4 9 8 9 5 0 9 -7 9 -15z m193 5 c0 -5 -4 -10 -10 -10 -5 0
-10 5 -10 10 0 6 5 10 10 10 6 0 10 -4 10 -10z m-1205 -18 c-3 -3 -11 0 -18 7
-9 10 -8 11 6 5 10 -3 15 -9 12 -12z m595 9 c0 -5 -7 -12 -16 -15 -14 -5 -15
-4 -4 9 14 17 20 19 20 6z m554 1 c2 -4 -4 -9 -15 -9 -11 -1 -17 2 -14 8 7 11
22 12 29 1z m-2231 -17 c7 -16 -8 -29 -23 -20 -15 9 -12 35 4 35 8 0 16 -7 19
-15z m1127 -1 c0 -8 -4 -12 -10 -9 -5 3 -10 10 -10 16 0 5 5 9 10 9 6 0 10 -7
10 -16z m-470 -4 c0 -5 -7 -10 -15 -10 -8 0 -15 5 -15 10 0 6 7 10 15 10 8 0
15 -4 15 -10z m890 -24 c0 -3 -7 -3 -15 0 -8 4 -15 13 -15 21 0 12 2 12 15 -1
8 -8 15 -17 15 -20z m1104 28 c30 -12 13 -54 -21 -54 -4 0 -3 3 0 7 4 3 -1 12
-11 20 -15 12 -15 13 8 10 14 -2 19 -2 13 0 -7 3 -13 9 -13 14 0 11 3 11 24 3z
m60 -26 c-3 -4 -11 -5 -19 -2 -11 5 -12 9 -2 19 12 13 31 -1 21 -17z m-1344
12 c0 -5 3 -9 8 -8 4 0 15 -2 25 -7 12 -5 23 -2 33 11 14 18 15 18 5 -3 -14
-28 -14 -33 2 -27 8 3 20 -2 26 -10 11 -13 9 -17 -14 -26 -25 -9 -58 -2 -56
13 3 19 0 27 -10 27 -6 0 -7 -5 -2 -12 4 -7 8 -20 10 -28 1 -8 7 -16 12 -18 6
-2 11 -9 11 -15 0 -8 -3 -8 -11 0 -8 8 -20 6 -45 -9 -27 -16 -32 -23 -25 -37
5 -9 7 -21 3 -27 -8 -11 -37 -12 -48 -1 -4 4 -11 7 -16 7 -8 0 -2 -10 29 -44
10 -11 9 -17 -2 -26 -12 -10 -15 -10 -15 3 0 23 -28 43 -42 29 -9 -9 -9 -12 0
-12 7 0 12 -4 12 -10 0 -19 -42 -10 -47 10 -3 11 -9 20 -13 20 -4 0 -10 9 -13
21 -3 12 -10 19 -15 15 -5 -3 -9 1 -9 9 0 8 5 13 11 12 10 -2 16 21 9 35 -2 4
-14 1 -27 -7 -22 -14 -36 -12 -36 7 0 5 5 6 10 3 6 -4 10 5 10 20 0 24 1 25
16 11 8 -9 21 -16 27 -16 7 0 6 4 -3 10 -13 8 -12 10 3 10 11 0 27 10 37 22
16 21 22 22 59 12 47 -13 62 -6 29 14 l-23 13 23 -4 c12 -3 22 -1 22 5 0 6 7
7 16 4 8 -3 12 -2 9 4 -3 6 -1 10 4 10 6 0 11 -4 11 -10z m124 -5 c3 -8 1 -15
-4 -15 -6 0 -10 7 -10 15 0 8 2 15 4 15 2 0 6 -7 10 -15z m893 -5 c3 -10 2
-11 -4 -4 -4 6 -15 14 -23 17 -11 5 -9 6 4 4 11 -1 21 -9 23 -17z m2183 10 c0
-13 -28 -25 -38 -16 -3 4 0 11 8 16 20 13 30 12 30 0z m1726 -12 c26 -12 50
-58 31 -58 -9 0 -9 -2 1 -8 7 -5 14 -28 15 -52 3 -45 18 -60 41 -40 16 12 20
5 32 -63 5 -32 3 -41 -20 -62 -21 -20 -26 -33 -26 -73 0 -32 -5 -54 -15 -62
-8 -7 -15 -21 -15 -31 0 -29 -46 -36 -78 -12 -48 35 -64 79 -56 156 6 62 4 69
-17 86 -21 17 -28 17 -59 6 -165 -59 -226 -24 -185 106 9 29 57 49 117 49 30
0 61 7 72 15 10 8 23 12 28 9 4 -3 21 4 37 15 16 12 34 21 41 21 6 0 8 4 5 10
-6 10 15 5 51 -12z m-5296 4 c0 -5 -7 -9 -15 -9 -8 0 -12 4 -9 9 3 4 9 8 15 8
5 0 9 -4 9 -8z m70 -6 c-7 -7 -13 -7 -20 0 -6 6 -3 10 10 10 13 0 16 -4 10
-10z m1390 -5 c0 -6 -4 -12 -8 -15 -5 -3 -9 1 -9 9 0 8 4 15 9 15 4 0 8 -4 8
-9z m45 -1 c-3 -5 -13 -10 -21 -10 -8 0 -12 5 -9 10 3 6 13 10 21 10 8 0 12
-4 9 -10z m-1465 -10 c0 -5 -15 -10 -32 -9 -31 1 -32 1 -8 9 35 11 40 11 40 0z
m1241 -13 c-10 -9 -11 -8 -5 6 3 10 9 15 12 12 3 -3 0 -11 -7 -18z m319 13 c0
-5 -4 -10 -10 -10 -5 0 -10 5 -10 10 0 6 5 10 10 10 6 0 10 -4 10 -10z m1622
0 c9 0 37 -16 62 -35 25 -19 46 -30 46 -24 0 8 5 8 15 -1 17 -14 20 -30 5 -30
-14 0 -50 -37 -42 -44 3 -3 1 -6 -4 -6 -5 0 -21 12 -35 28 -31 32 -125 82
-154 82 -60 -1 -184 -100 -186 -148 -2 -26 -2 -26 -6 -3 -5 25 27 101 50 118
32 25 184 73 212 67 11 -2 28 -4 37 -4z m-5116 -44 c41 -41 47 -98 14 -134
-45 -48 -151 -11 -170 59 -18 67 12 109 78 109 37 0 50 -6 78 -34z m1714 23
c0 -6 -6 -9 -14 -6 -7 3 -19 0 -25 -6 -7 -7 -11 -7 -11 -1 0 16 11 24 32 24
10 0 18 -5 18 -11z m145 1 c-3 -5 -11 -10 -16 -10 -6 0 -7 5 -4 10 3 6 11 10
16 10 6 0 7 -4 4 -10z m545 6 c0 -3 -4 -8 -10 -11 -5 -3 -10 -1 -10 4 0 6 5
11 10 11 6 0 10 -2 10 -4z m77 -12 c-3 -3 -12 -4 -19 -1 -8 3 -5 6 6 6 11 1
17 -2 13 -5z m583 -4 c0 -5 -4 -10 -10 -10 -5 0 -10 5 -10 10 0 6 5 10 10 10
6 0 10 -4 10 -10z m164 -6 c3 -8 2 -12 -4 -9 -6 3 -10 10 -10 16 0 14 7 11 14
-7z m106 6 c0 -5 -5 -10 -11 -10 -5 0 -7 5 -4 10 3 6 8 10 11 10 2 0 4 -4 4
-10z m150 0 c0 -5 -5 -10 -11 -10 -5 0 -7 5 -4 10 3 6 8 10 11 10 2 0 4 -4 4
-10z m-890 -15 c0 -8 -2 -15 -4 -15 -2 0 -6 7 -10 15 -3 8 -1 15 4 15 6 0 10
-7 10 -15z m846 -22 c-11 -11 -17 4 -9 23 7 18 8 18 11 1 2 -10 1 -21 -2 -24z
m-1886 13 c0 -2 -7 -7 -16 -10 -8 -3 -12 -2 -9 4 6 10 25 14 25 6z m1774 -12
c3 -8 2 -12 -4 -9 -6 3 -10 10 -10 16 0 14 7 11 14 -7z m176 6 c-8 -5 -22 -10
-30 -10 -13 0 -13 1 0 10 8 5 22 10 30 10 13 0 13 -1 0 -10z m79 1 c16 -10 6
-31 -14 -31 -17 0 -28 17 -20 30 8 12 16 12 34 1z m-1809 -11 c0 -5 -5 -10
-11 -10 -5 0 -7 5 -4 10 3 6 8 10 11 10 2 0 4 -4 4 -10z m163 -12 c7 -27 5
-30 -17 -22 -19 7 -22 44 -2 44 7 0 16 -10 19 -22z m533 -5 c-10 -10 -19 5
-10 18 6 11 8 11 12 0 2 -7 1 -15 -2 -18z m371 21 c-3 -3 -12 -4 -19 -1 -8 3
-5 6 6 6 11 1 17 -2 13 -5z m2547 -25 c-8 -13 -24 -1 -24 18 0 13 3 13 15 3 8
-7 12 -16 9 -21z m-4614 -26 c0 -47 -23 -61 -35 -22 -9 29 2 66 20 66 11 0 15
-12 15 -44z m1580 37 c0 -5 -4 -10 -9 -10 -6 0 -13 5 -16 10 -3 6 1 10 9 10 9
0 16 -4 16 -10z m34 3 c-5 -5 -12 -12 -16 -18 -4 -6 -8 -2 -8 8 0 9 7 17 17
17 9 0 12 -3 7 -7z m973 -6 c0 -8 -6 -14 -14 -14 -9 0 -10 4 -2 14 6 7 12 13
14 13 1 0 2 -6 2 -13z m-807 -7 c0 -5 -2 -10 -4 -10 -3 0 -8 5 -11 10 -3 6 -1
10 4 10 6 0 11 -4 11 -10z m90 0 c0 -5 -2 -10 -4 -10 -3 0 -8 5 -11 10 -3 6
-1 10 4 10 6 0 11 -4 11 -10z m2700 1 c0 -5 3 -16 6 -25 5 -12 0 -16 -20 -16
-14 0 -26 5 -26 11 0 6 7 8 16 5 12 -4 14 -1 9 14 -4 11 -2 20 4 20 6 0 11 -4
11 -9z m-3015 -11 c3 -5 1 -10 -4 -10 -6 0 -11 5 -11 10 0 6 2 10 4 10 3 0 8
-4 11 -10z m1105 1 c0 -5 -7 -11 -14 -14 -10 -4 -13 -1 -9 9 6 15 23 19 23 5z
m-816 -17 c3 -8 2 -12 -4 -9 -6 3 -10 10 -10 16 0 14 7 11 14 -7z m-585 -3 c7
-5 9 -11 5 -14 -5 -3 -15 1 -22 9 -14 16 -5 18 17 5z m1425 -12 c-3 -5 -10 -7
-15 -3 -5 3 -7 10 -3 15 3 5 10 7 15 3 5 -3 7 -10 3 -15z m1840 -37 c19 -4 46
-25 46 -36 0 -12 -24 -5 -43 12 -11 9 -17 11 -13 5 4 -7 3 -21 -3 -30 -11 -20
-13 -17 -29 47 -5 19 -14 34 -21 33 -6 -2 -11 5 -11 15 1 13 7 11 28 -13 16
-16 36 -31 46 -33z m-3369 30 c-3 -3 -11 0 -18 7 -9 10 -8 11 6 5 10 -3 15 -9
12 -12z m65 8 c0 -5 -4 -10 -10 -10 -5 0 -10 5 -10 10 0 6 5 10 10 10 6 0 10
-4 10 -10z m410 0 c0 -5 -4 -10 -10 -10 -5 0 -10 5 -10 10 0 6 5 10 10 10 6 0
10 -4 10 -10z m125 0 c3 -5 1 -10 -4 -10 -6 0 -11 5 -11 10 0 6 2 10 4 10 3 0
8 -4 11 -10z m2765 0 c0 -5 -5 -10 -11 -10 -5 0 -7 5 -4 10 3 6 8 10 11 10 2
0 4 -4 4 -10z m-3010 -6 c0 -3 -7 -12 -15 -21 -20 -19 -32 -9 -15 12 12 15 30
20 30 9z m80 2 c0 -3 -4 -8 -10 -11 -5 -3 -10 -1 -10 4 0 6 5 11 10 11 6 0 10
-2 10 -4z m1224 -41 c-8 -20 -34 -27 -40 -10 -8 20 18 46 33 33 6 -5 9 -16 7
-23z m1316 16 c0 -11 -11 -33 -25 -48 -20 -23 -24 -25 -25 -10 0 21 18 59 34
69 15 11 16 10 16 -11z m-3113 3 c-3 -3 -12 -4 -19 -1 -8 3 -5 6 6 6 11 1 17
-2 13 -5z m178 -4 c3 -6 -1 -7 -9 -4 -18 7 -21 14 -7 14 6 0 13 -4 16 -10z
m93 -18 c2 -7 -3 -12 -12 -12 -9 0 -16 7 -16 16 0 17 22 14 28 -4z m512 14 c0
-3 -4 -8 -10 -11 -5 -3 -10 -1 -10 4 0 6 5 11 10 11 6 0 10 -2 10 -4z m900 -6
c0 -5 -2 -10 -4 -10 -3 0 -8 5 -11 10 -3 6 -1 10 4 10 6 0 11 -4 11 -10z
m1930 -6 c0 -8 -5 -12 -10 -9 -6 4 -8 11 -5 16 9 14 15 11 15 -7z m-7281 -8
c9 -11 10 -20 1 -35 -14 -27 -20 -27 -13 0 4 15 0 27 -12 35 -16 12 -16 14 -3
14 8 0 21 -6 27 -14z m3891 -6 c13 -9 13 -11 0 -20 -8 -5 -19 -10 -25 -10 -5
0 -3 5 5 10 13 9 13 11 0 20 -8 5 -10 10 -5 10 6 0 17 -5 25 -10z m420 -15 c0
-8 -7 -15 -15 -15 -8 0 -15 7 -15 15 0 8 7 15 15 15 8 0 15 -7 15 -15z m235 5
c3 -5 1 -10 -4 -10 -6 0 -11 5 -11 10 0 6 2 10 4 10 3 0 8 -4 11 -10z m2399 4
c8 -3 12 -12 9 -20 -7 -18 -23 -18 -23 0 0 8 -6 17 -12 19 -9 4 -9 6 -1 6 6 1
18 -2 27 -5z m1334 -25 c22 -27 27 -53 20 -111 -1 -10 -8 -15 -19 -13 -21 4
-78 33 -93 48 -13 12 -9 76 6 95 18 22 61 13 86 -19z m-8317 0 c5 -8 9 -17 9
-21 0 -5 9 -8 20 -8 11 0 20 -4 20 -10 0 -14 -33 -12 -49 3 -11 10 -12 7 -6
-13 7 -23 5 -22 -27 10 -19 19 -33 38 -31 42 2 3 -5 9 -14 11 -10 3 2 4 26 3
23 -2 47 -9 52 -17z m3998 4 c-6 -7 -15 -10 -20 -7 -13 8 -3 21 15 21 12 0 13
-4 5 -14z m-4102 -15 c-3 -8 -6 -5 -6 6 -1 11 2 17 5 13 3 -3 4 -12 1 -19z
m4193 12 c0 -5 -7 -10 -16 -10 -8 0 -12 5 -9 10 3 6 10 10 16 10 5 0 9 -4 9
-10z m119 -4 c17 -20 4 -66 -17 -59 -10 5 -13 3 -8 -6 6 -10 4 -10 -12 0 -23
15 -45 56 -37 70 9 14 61 11 74 -5z m1184 -9 c3 -8 1 -20 -4 -28 -14 -22 -10
-33 6 -19 13 11 14 10 9 -4 -7 -19 -30 -21 -37 -3 -7 17 3 67 13 67 4 0 10 -6
13 -13z m1640 -18 c-17 -17 -37 -1 -22 17 8 10 15 12 23 4 7 -7 7 -13 -1 -21z
m-325 -2 c4 -20 -25 -34 -40 -19 -15 15 -1 44 19 40 10 -2 19 -11 21 -21z
m217 13 c-3 -5 -2 -10 4 -10 6 0 8 -7 5 -15 -4 -8 -12 -15 -19 -15 -21 0 -26
29 -7 39 22 13 25 13 17 1z m-3169 -11 c13 -21 -12 -29 -29 -9 -16 19 -16 20
3 20 10 0 22 -5 26 -11z m289 1 c3 -5 -1 -10 -9 -10 -9 0 -16 5 -16 10 0 6 4
10 9 10 6 0 13 -4 16 -10z m340 -1 c11 -16 1 -19 -13 -3 -7 8 -8 14 -3 14 5 0
13 -5 16 -11z m2086 -25 c36 -30 49 -35 83 -32 45 3 63 -15 20 -20 -15 -2 -34
-10 -42 -18 -13 -13 -18 -12 -41 9 -35 32 -93 55 -99 39 -5 -15 -34 -16 -49
-1 -18 18 -3 39 27 39 16 0 32 5 35 10 10 16 21 12 66 -26z m-6657 11 c-7 -16
-24 -21 -24 -6 0 8 7 13 27 20 1 1 0 -6 -3 -14z m77 -7 c12 -22 11 -22 -8 -5
-11 9 -22 14 -25 11 -3 -3 -9 -1 -13 5 -3 7 2 11 14 11 11 0 26 -10 32 -22z
m4229 -20 c0 -5 -7 -8 -15 -8 -8 0 -15 4 -15 9 0 5 -3 17 -7 26 -5 16 -4 15
15 -1 12 -10 22 -22 22 -26z m420 32 c0 -5 -2 -10 -4 -10 -3 0 -8 5 -11 10 -3
6 -1 10 4 10 6 0 11 -4 11 -10z m-570 -30 c-8 -5 -17 -7 -19 -4 -3 3 1 9 9 14
8 5 17 7 19 4 3 -3 -1 -9 -9 -14z m-3930 -1 c0 7 5 9 10 6 6 -4 8 -10 5 -15
-3 -4 2 -10 10 -14 21 -8 19 -33 -5 -46 -11 -6 -20 -17 -20 -24 0 -22 -26 -26
-27 -5 -1 10 5 19 12 19 8 0 19 10 26 21 8 15 8 19 0 15 -6 -4 -11 0 -11 9 0
8 -7 18 -15 21 -8 4 -15 11 -15 16 0 6 6 5 15 -2 11 -9 15 -9 15 -1z m403 -19
c6 -23 -8 -28 -16 -6 -4 9 -14 13 -29 9 -18 -4 -20 -3 -8 6 24 17 47 13 53 -9z
m3407 4 c0 -2 -7 -4 -15 -4 -8 0 -15 4 -15 10 0 5 7 7 15 4 8 -4 15 -8 15 -10z
m187 10 c-3 -3 -12 -4 -19 -1 -8 3 -5 6 6 6 11 1 17 -2 13 -5z m-4207 -42 c0
-13 -3 -12 -15 4 -19 25 -19 40 0 24 8 -7 15 -20 15 -28z m56 15 c17 -19 18
-25 7 -35 -10 -10 -13 -9 -13 4 0 10 -7 26 -17 36 -9 10 -12 18 -6 18 5 0 18
-10 29 -23z m113 1 c0 -13 -3 -18 -5 -11 -3 7 -13 9 -22 6 -14 -6 -15 -5 -2
10 21 23 30 21 29 -5z m4281 2 c-8 -5 -17 -7 -19 -4 -3 3 1 9 9 14 8 5 17 7
19 4 3 -3 -1 -9 -9 -14z m-400 -10 c0 -5 -8 -10 -17 -10 -15 0 -16 2 -3 10 19
12 20 12 20 0z m50 0 c0 -5 -4 -10 -9 -10 -6 0 -13 5 -16 10 -3 6 1 10 9 10 9
0 16 -4 16 -10z m240 0 c0 -5 -4 -10 -10 -10 -5 0 -10 5 -10 10 0 6 5 10 10
10 6 0 10 -4 10 -10z m1245 0 c-3 -5 -11 -10 -16 -10 -6 0 -7 5 -4 10 3 6 11
10 16 10 6 0 7 -4 4 -10z m-5471 -16 c3 -8 2 -12 -4 -9 -6 3 -10 10 -10 16 0
14 7 11 14 -7z m456 12 c0 -2 -7 -7 -16 -10 -8 -3 -12 -2 -9 4 6 10 25 14 25
6z m82 -41 c-4 -5 -8 -2 -10 8 -2 9 -8 17 -13 17 -6 0 -7 5 -4 11 5 6 12 4 20
-8 7 -10 10 -22 7 -28z m3518 19 c0 -8 -7 -14 -16 -14 -11 0 -15 -6 -11 -20 3
-13 0 -20 -9 -20 -8 0 -14 6 -14 14 0 8 -6 17 -12 19 -8 4 -7 6 3 6 9 1 19 10
22 21 6 23 37 17 37 -6z m-4004 -22 c-4 -3 -11 0 -16 8 -15 24 -11 33 6 15 9
-9 13 -19 10 -23z m598 12 c15 -39 -4 -84 -35 -84 -37 0 -69 80 -36 93 27 11
65 6 71 -9z m3473 10 c-3 -3 -12 -4 -19 -1 -8 3 -5 6 6 6 11 1 17 -2 13 -5z
m178 -4 c3 -5 1 -10 -4 -10 -6 0 -11 5 -11 10 0 6 2 10 4 10 3 0 8 -4 11 -10z
m-4486 -35 c6 3 11 1 11 -5 0 -20 -42 -6 -58 20 l-16 25 26 -24 c15 -12 31
-20 37 -16z m7221 19 c0 -2 -9 -4 -21 -4 -11 0 -18 4 -14 10 5 8 35 3 35 -6z
m1503 -9 c67 -1 112 -6 119 -13 7 -7 25 -12 40 -12 29 0 50 -26 32 -39 -5 -3
-9 -17 -9 -31 0 -14 -5 -24 -12 -23 -6 1 -17 -4 -23 -12 -8 -10 -31 -15 -66
-15 -43 0 -54 -3 -59 -19 -9 -30 -73 -41 -101 -18 -39 32 -64 59 -64 68 0 6
-4 8 -8 5 -10 -6 -12 9 -12 73 0 55 6 64 33 49 13 -7 66 -13 130 -13z m-4453
0 c0 -8 -4 -15 -10 -15 -5 0 -10 7 -10 15 0 8 5 15 10 15 6 0 10 -7 10 -15z
m157 9 c-3 -3 -12 -4 -19 -1 -8 3 -5 6 6 6 11 1 17 -2 13 -5z m-95 -26 c-7 -7
-12 -8 -12 -2 0 6 3 14 7 17 3 4 9 5 12 2 2 -3 -1 -11 -7 -17z m-4175 -10 c-3
-8 -6 -5 -6 6 -1 11 2 17 5 13 3 -3 4 -12 1 -19z m6688 12 c-3 -5 -13 -10 -21
-10 -8 0 -14 5 -14 10 0 6 9 10 21 10 11 0 17 -4 14 -10z m-7158 -6 c-3 -3
-12 -4 -19 -1 -8 3 -5 6 6 6 11 1 17 -2 13 -5z m542 -25 c-6 -13 -6 -25 1 -38
15 -29 12 -36 -8 -18 -22 20 -19 89 4 80 10 -4 11 -10 3 -24z m89 20 c-2 -6
-8 -10 -13 -10 -5 0 -11 4 -13 10 -2 6 4 11 13 11 9 0 15 -5 13 -11z m352 4
c0 -5 -5 -15 -11 -23 -9 -13 -10 -13 -6 2 3 9 1 19 -6 22 -7 2 -4 5 6 5 9 1
17 -2 17 -6z m6445 -4 c12 -19 -5 -23 -22 -6 -16 16 -16 17 -1 17 9 0 20 -5
23 -11z m-6565 -14 c0 -9 -6 -12 -16 -8 -13 5 -13 7 -2 14 17 11 18 11 18 -6z
m8421 -12 c-8 -15 -10 -15 -11 -2 0 17 10 32 18 25 2 -3 -1 -13 -7 -23z
m-9235 -6 c28 -30 36 -54 18 -54 -8 0 -14 6 -14 13 0 7 -6 17 -13 21 -15 9
-30 43 -19 43 4 0 16 -10 28 -23z m4519 13 c3 -5 1 -10 -4 -10 -6 0 -11 5 -11
10 0 6 2 10 4 10 3 0 8 -4 11 -10z m105 -12 c0 -5 -9 -4 -20 2 -11 6 -20 12
-20 14 0 2 9 2 20 -1 11 -3 20 -9 20 -15z m-4449 -3 c1 -16 -16 -16 -36 0 -19
15 -19 15 8 13 15 -2 28 -7 28 -13z m409 -5 c-8 -6 -22 -10 -30 -10 -8 0 -4 6
10 13 27 15 44 12 20 -3z m4100 10 c12 -8 11 -10 -7 -10 -13 0 -23 5 -23 10 0
13 11 13 30 0z m2750 1 c0 -4 11 -7 25 -6 15 2 25 -2 25 -10 0 -7 -10 -12 -25
-11 -14 0 -25 4 -25 9 0 4 -7 7 -15 7 -8 0 -15 5 -15 10 0 6 7 10 15 10 8 0
15 -4 15 -9z m-6761 -4 c-2 -1 -12 -9 -21 -16 -15 -12 -18 -11 -18 3 0 10 8
16 22 16 12 0 19 -1 17 -3z m-723 -22 c-3 -8 -1 -15 4 -15 6 0 10 -7 10 -16 0
-14 -3 -14 -15 -4 -9 7 -14 19 -11 27 3 7 -1 13 -9 13 -8 0 -15 -7 -15 -17 0
-9 -3 -14 -6 -10 -12 12 6 37 27 37 15 0 19 -5 15 -15z m798 -1 c4 -9 2 -13
-5 -8 -6 4 -15 1 -19 -6 -5 -8 -9 -5 -13 9 -4 16 0 21 13 21 10 0 21 -7 24
-16z m4043 -6 c-3 -8 -6 -5 -6 6 -1 11 2 17 5 13 3 -3 4 -12 1 -19z m-4568
-34 c-6 -8 -6 -14 1 -17 6 -3 5 -4 -2 -3 -7 1 -13 17 -14 35 -2 28 0 30 11 14
9 -12 10 -22 4 -29z m228 32 c-4 -11 -1 -13 10 -9 10 4 14 2 9 -5 -3 -6 2 -15
11 -21 14 -8 15 -10 3 -10 -22 0 -50 24 -50 43 0 9 5 16 11 16 6 0 9 -7 6 -14z
m6968 4 c3 -5 1 -10 -4 -10 -6 0 -11 5 -11 10 0 6 2 10 4 10 3 0 8 -4 11 -10z
m-6838 -12 c-2 -7 -9 -12 -14 -11 -5 1 -8 -14 -8 -32 1 -19 -2 -32 -6 -29 -9
5 -6 54 4 72 11 16 30 16 24 0z m67 -14 c12 -31 7 -56 -11 -52 -9 2 -18 10
-20 18 -4 13 -3 13 6 0 9 -13 11 -12 11 3 0 11 -9 21 -20 24 -11 3 -17 9 -14
14 9 15 41 10 48 -7z m4056 4 c0 -4 -7 -8 -15 -8 -8 0 -15 4 -15 8 0 5 7 9 15
9 8 0 15 -4 15 -9z m65 2 c3 -5 1 -10 -4 -10 -6 0 -11 5 -11 10 0 6 2 10 4 10
3 0 8 -4 11 -10z m-4840 -22 c28 -12 29 -16 15 -38 -6 -9 -10 -10 -10 -3 0 7
-10 21 -22 33 -25 23 -20 25 17 8z m281 -38 c8 0 14 -4 14 -10 0 -5 -5 -10
-11 -10 -20 0 -49 21 -49 35 0 8 -5 15 -11 15 -5 0 -7 5 -3 12 5 7 14 2 26
-15 11 -15 26 -27 34 -27z m-166 19 c0 -6 -9 -7 -22 -3 -21 6 -22 6 -4 -12 10
-10 25 -32 32 -49 8 -18 13 -23 14 -12 0 29 15 19 16 -11 1 -18 -4 -29 -12
-29 -8 0 -14 6 -14 12 0 7 -19 36 -42 66 -24 29 -36 50 -27 47 9 -3 22 -2 29
2 16 10 30 4 30 -11z m544 5 c3 -8 2 -12 -4 -9 -6 3 -10 10 -10 16 0 14 7 11
14 -7z m121 6 c3 -5 1 -10 -4 -10 -6 0 -11 5 -11 10 0 6 2 10 4 10 3 0 8 -4
11 -10z m3259 -22 c-4 -6 -10 -5 -15 3 -14 22 -10 33 6 19 8 -7 12 -17 9 -22z
m3576 17 c19 -23 8 -25 -14 -4 -11 11 -15 19 -9 19 6 0 16 -7 23 -15z m-7085
-5 c3 -5 1 -10 -4 -10 -6 0 -11 5 -11 10 0 6 2 10 4 10 3 0 8 -4 11 -10z
m3965 0 c0 -5 -2 -10 -4 -10 -3 0 -8 5 -11 10 -3 6 -1 10 4 10 6 0 11 -4 11
-10z m-4530 -10 c0 -5 -5 -10 -11 -10 -5 0 -7 5 -4 10 3 6 8 10 11 10 2 0 4
-4 4 -10z m430 0 c0 -5 -5 -10 -11 -10 -5 0 -7 5 -4 10 3 6 8 10 11 10 2 0 4
-4 4 -10z m527 -20 c7 -18 7 -32 2 -36 -8 -5 -29 35 -29 57 0 20 16 7 27 -21z
m-347 -2 c0 -6 -6 -5 -15 2 -8 7 -15 14 -15 16 0 2 7 1 15 -2 8 -4 15 -11 15
-16z m5377 0 c-3 -8 -6 -5 -6 6 -1 11 2 17 5 13 3 -3 4 -12 1 -19z m-1362 2
c-3 -5 -11 -10 -16 -10 -6 0 -7 5 -4 10 3 6 11 10 16 10 6 0 7 -4 4 -10z m425
0 c0 -5 -5 -10 -11 -10 -5 0 -7 5 -4 10 3 6 8 10 11 10 2 0 4 -4 4 -10z
m-4387 -57 c-10 -28 -43 -45 -43 -22 0 5 4 8 8 5 4 -2 13 3 19 13 9 15 9 18
-4 17 -9 0 -18 5 -21 13 -3 8 0 11 7 7 6 -4 11 0 11 11 0 15 2 15 15 -4 9 -12
12 -29 8 -40z m234 25 c-15 -11 -25 -24 -21 -29 3 -5 1 -9 -5 -9 -5 0 -9 9 -8
19 0 11 5 17 9 15 4 -3 8 0 8 5 0 6 7 11 15 11 8 0 15 5 15 12 0 6 3 8 7 4 5
-4 -4 -17 -20 -28z m166 0 c15 -11 27 -24 27 -30 0 -6 -3 -8 -6 -5 -4 3 -14 2
-24 -3 -14 -8 -16 -5 -13 14 4 18 -1 26 -16 31 -38 12 -58 -19 -22 -33 16 -6
17 -9 5 -20 -11 -10 -17 -7 -31 14 -16 26 -16 27 6 45 24 19 27 19 74 -13z
m-699 14 c2 -4 1 -14 -3 -21 -6 -9 -10 -7 -14 8 -5 20 7 29 17 13z m1391 -2
c3 -5 1 -10 -4 -10 -6 0 -11 5 -11 10 0 6 2 10 4 10 3 0 8 -4 11 -10z m448
-28 c46 -43 26 -122 -27 -106 -37 11 -86 65 -86 96 0 53 61 58 113 10z m2552
19 c-3 -6 -11 -11 -17 -11 -6 0 -6 6 2 15 14 17 26 13 15 -4z m-4425 -1 c0 -5
-4 -10 -9 -10 -6 0 -13 5 -16 10 -3 6 1 10 9 10 9 0 16 -4 16 -10z m70 -20
c-24 -15 -37 -11 -16 5 11 8 22 12 25 9 3 -3 -1 -9 -9 -14z m200 0 c0 -5 -4
-10 -9 -10 -6 0 -13 5 -16 10 -3 6 1 10 9 10 9 0 16 -4 16 -10z m1000 -36 c0
-18 -14 -18 -30 1 -16 19 -3 40 16 24 8 -6 14 -18 14 -25z m143 21 c-3 -9 -8
-14 -10 -11 -3 3 -2 9 2 15 9 16 15 13 8 -4z m-1859 -26 c-8 -14 -24 -10 -24
6 0 9 6 12 15 9 8 -4 12 -10 9 -15z m726 11 c0 -5 -4 -10 -10 -10 -5 0 -10 5
-10 10 0 6 5 10 10 10 6 0 10 -4 10 -10z m8129 -14 c5 -13 16 -26 25 -29 12
-5 10 -12 -14 -36 -31 -34 -64 -39 -90 -16 -18 16 -16 65 2 65 6 0 8 6 5 14
-8 19 1 26 35 26 21 0 31 -6 37 -24z m-4889 4 c0 -5 -4 -10 -10 -10 -5 0 -10
5 -10 10 0 6 5 10 10 10 6 0 10 -4 10 -10z m-3920 -10 c0 -5 -2 -10 -4 -10 -3
0 -8 5 -11 10 -3 6 -1 10 4 10 6 0 11 -4 11 -10z m82 -12 c-7 -7 -12 -8 -12
-2 0 14 12 26 19 19 2 -3 -1 -11 -7 -17z m203 12 c3 -6 -4 -10 -17 -10 -18 0
-20 2 -8 10 19 12 18 12 25 0z m757 3 c-6 -2 -10 -9 -7 -14 4 -5 -1 -6 -10 -2
-13 5 -14 7 -3 14 7 5 18 8 23 8 6 0 4 -3 -3 -6z m94 -20 c-10 -11 -19 -7 -22
10 -2 15 0 16 12 6 8 -6 12 -14 10 -16z m3408 21 c13 -5 14 -9 5 -20 -16 -19
-26 -17 -32 6 -5 21 1 24 27 14z m4462 -40 c-6 -16 -36 -19 -36 -4 0 6 5 10
11 10 5 0 7 5 3 11 -3 6 0 15 7 20 16 9 25 -12 15 -37z m73 32 c9 -11 9 -19
-1 -35 -14 -23 -47 -28 -50 -8 -4 35 -4 43 -1 50 7 12 40 8 52 -7z m-9036 -10
c4 -10 1 -13 -9 -9 -7 3 -14 9 -14 14 0 14 17 10 23 -5z m637 -14 c0 -15 -2
-15 -10 -2 -13 20 -13 33 0 25 6 -3 10 -14 10 -23z m488 -33 c-4 -3 1 -15 12
-27 12 -12 16 -22 11 -22 -5 0 -13 5 -16 10 -4 6 -11 8 -16 4 -6 -4 -6 -11 2
-20 9 -11 8 -18 -5 -32 -21 -24 -21 -39 0 -21 13 10 17 10 24 -1 5 -7 3 -18
-3 -25 -7 -7 -13 -9 -15 -4 -2 5 -10 9 -17 9 -7 0 -15 7 -19 15 -3 8 -1 15 5
15 6 0 9 7 6 14 -4 10 -1 13 9 9 18 -7 18 6 -1 31 -13 18 -15 18 -15 3 0 -16
-2 -16 -25 -1 -13 8 -30 12 -36 8 -7 -4 -9 -3 -6 3 4 6 1 13 -7 16 -10 4 -12
0 -9 -14 6 -23 -9 -25 -27 -4 -10 12 -9 16 4 21 9 3 16 14 17 23 0 13 1 14 7
1 4 -8 14 -15 22 -15 8 0 18 7 23 15 4 9 5 3 2 -12 -4 -21 -1 -28 10 -28 9 0
14 4 11 9 -4 5 0 12 6 15 10 5 10 7 1 12 -7 3 -13 11 -13 17 0 5 3 7 6 4 4 -3
16 0 28 9 19 13 21 13 27 -8 3 -13 2 -26 -3 -29z m3851 25 c10 -9 -6 -12 -31
-7 -16 3 -28 9 -28 14 0 8 48 2 59 -7z m3911 5 c0 -5 5 -7 10 -4 6 3 10 2 10
-4 0 -5 -9 -9 -20 -8 -20 1 -29 27 -10 27 6 0 10 -5 10 -11z m-7970 -8 c0 -13
-29 -35 -37 -28 -3 4 2 9 11 13 9 3 13 10 10 15 -3 5 0 9 5 9 6 0 11 -4 11 -9z
m8150 -1 c0 -5 -4 -10 -10 -10 -5 0 -10 5 -10 10 0 6 5 10 10 10 6 0 10 -4 10
-10z m-8207 -15 c-3 -9 -8 -14 -10 -11 -3 3 -2 9 2 15 9 16 15 13 8 -4z m-265
-30 c-3 -3 -9 2 -12 12 -6 14 -5 15 5 6 7 -7 10 -15 7 -18z m242 17 c0 -4 -10
-9 -22 -9 -18 -2 -20 0 -8 7 18 12 30 13 30 2z m550 -5 c14 -6 28 -16 32 -22
13 -17 9 -35 -6 -29 -8 3 -12 12 -9 20 3 9 0 12 -9 9 -8 -3 -20 1 -27 9 -6 7
-21 12 -31 9 -11 -3 -20 -1 -20 4 0 14 42 14 70 0z m707 -7 c16 -25 6 -50 -19
-50 -10 0 -17 4 -14 9 4 5 2 11 -4 13 -13 4 -1 48 14 48 6 0 17 -9 23 -20z
m292 -34 c8 -10 9 -16 1 -21 -6 -4 -9 -1 -8 7 2 7 -5 12 -14 12 -10 -1 -18 2
-18 7 0 14 26 11 39 -5z m-2253 -23 c-10 -10 -19 5 -10 18 6 11 8 11 12 0 2
-7 1 -15 -2 -18z m840 -11 c-15 -3 -19 -12 -13 -29 1 -5 5 -7 10 -5 4 1 7 -5
7 -13 0 -25 -34 -17 -47 11 -10 21 -9 25 2 20 14 -5 29 19 26 44 -1 11 3 9 14
-5 14 -18 14 -20 1 -23z m249 8 c14 -27 14 -32 1 -45 -17 -17 -36 -20 -36 -4
0 5 5 7 11 3 8 -4 9 1 4 17 -9 29 -25 49 -25 30 0 -7 -5 -9 -11 -5 -8 4 -3 12
12 20 13 7 25 13 26 14 1 0 10 -14 18 -30z m5955 21 c0 -6 -4 -13 -10 -16 -5
-3 -10 1 -10 9 0 9 5 16 10 16 6 0 10 -4 10 -9z m-5905 -19 c-3 -3 -11 0 -18
7 -9 10 -8 11 6 5 10 -3 15 -9 12 -12z m125 8 c13 -9 13 -10 0 -10 -10 0 -7
-7 10 -20 14 -11 19 -20 12 -20 -14 0 -51 38 -52 53 0 10 12 9 30 -3z m-332
-44 c2 -9 -2 -16 -8 -16 -6 0 -9 4 -5 9 3 6 -5 20 -17 32 l-23 23 25 -16 c14
-8 26 -23 28 -32z m6073 34 c5 0 8 -6 7 -12 -3 -14 -38 -31 -46 -23 -3 3 0 5
6 5 7 0 12 5 12 11 0 6 -7 9 -15 5 -8 -3 -15 -2 -15 3 0 14 14 22 28 16 7 -3
18 -5 23 -5z m589 6 c0 -3 -4 -8 -10 -11 -5 -3 -10 -1 -10 4 0 6 5 11 10 11 6
0 10 -2 10 -4z m-507 -19 c7 -7 18 -23 24 -35 11 -18 11 -20 -4 -15 -12 5 -14
3 -8 -7 5 -8 4 -11 -3 -7 -5 4 -8 17 -6 30 2 12 2 16 -2 10 -10 -21 -23 -14
-16 9 4 16 2 19 -9 12 -8 -4 -20 -9 -27 -10 -10 -2 -11 1 -1 12 14 17 37 18
52 1z m204 -12 c0 -8 -7 -15 -15 -15 -12 0 -12 3 -2 15 7 8 13 15 15 15 1 0 2
-7 2 -15z m73 -13 c0 -5 -7 -9 -15 -9 -8 0 -15 4 -15 9 0 4 7 8 15 8 8 0 15
-4 15 -8z m-193 -22 c3 -10 2 -11 -4 -4 -4 6 -15 14 -23 17 -11 5 -9 6 4 4 11
-1 21 -9 23 -17z m403 5 c0 -17 -2 -18 -24 -9 -23 9 -20 24 4 24 11 0 20 -7
20 -15z m-6875 -4 c3 -5 2 -12 -3 -15 -5 -3 -9 1 -9 9 0 17 3 19 12 6z m75
-10 c6 -11 6 -22 1 -25 -5 -3 -11 5 -13 19 -6 30 -2 32 12 6z m520 9 c0 -5 -2
-10 -4 -10 -3 0 -8 5 -11 10 -3 6 -1 10 4 10 6 0 11 -4 11 -10z m6860 -10 c30
-10 51 -19 45 -20 -5 0 -2 -7 9 -15 10 -7 15 -18 12 -24 -4 -5 -2 -12 3 -15 7
-5 22 -62 25 -98 1 -12 49 -48 64 -48 9 0 12 -6 8 -16 -3 -9 -6 -20 -6 -25 0
-5 -14 -9 -31 -9 -30 0 -59 19 -59 39 0 6 -7 11 -15 11 -8 0 -15 5 -15 10 0 6
-9 10 -19 10 -11 0 -22 4 -25 9 -3 5 -35 17 -71 26 -60 17 -65 20 -71 50 -3
17 -4 40 -2 51 4 23 45 64 64 64 8 0 14 5 14 10 0 13 6 13 70 -10z m-7482 -15
c-3 -3 -9 2 -12 12 -6 14 -5 15 5 6 7 -7 10 -15 7 -18z m292 21 c0 -2 -7 -7
-16 -10 -8 -3 -12 -2 -9 4 6 10 25 14 25 6z m-220 -21 c7 -9 8 -15 2 -15 -5 0
-12 7 -16 15 -3 8 -4 15 -2 15 2 0 9 -7 16 -15z m6267 -7 c-3 -8 -6 -5 -6 6
-1 11 2 17 5 13 3 -3 4 -12 1 -19z m233 -27 c23 -22 23 -23 3 -12 -12 6 -25
16 -28 21 -4 6 -10 8 -15 5 -4 -3 -10 4 -13 16 -5 18 -3 18 11 7 9 -7 28 -23
42 -37z m-6400 13 c0 -20 -7 -17 -20 6 -9 16 -8 18 5 14 8 -4 15 -12 15 -20z
m160 10 c-6 -6 -8 -13 -5 -15 2 -3 -6 -6 -18 -6 -16 -2 -18 0 -8 6 7 5 11 13
8 18 -3 5 3 9 13 9 13 0 16 -4 10 -12z m6130 6 c0 -5 -5 -10 -11 -10 -5 0 -7
5 -4 10 3 6 8 10 11 10 2 0 4 -4 4 -10z m45 0 c3 -5 1 -10 -4 -10 -6 0 -11 5
-11 10 0 6 2 10 4 10 3 0 8 -4 11 -10z m-6478 -22 c-3 -8 -6 -5 -6 6 -1 11 2
17 5 13 3 -3 4 -12 1 -19z m6573 12 c0 -5 -5 -10 -11 -10 -5 0 -7 5 -4 10 3 6
8 10 11 10 2 0 4 -4 4 -10z m-6579 -30 c6 0 7 -5 3 -11 -8 -14 -24 8 -23 31 1
11 3 10 6 -2 2 -10 9 -18 14 -18z m475 -4 c10 -21 9 -24 -5 -19 -32 12 -43 25
-29 34 19 13 22 11 34 -15z m45 -10 c7 -23 5 -25 -7 -15 -8 6 -12 14 -9 17 3
3 -1 12 -8 20 -10 12 -9 14 2 10 8 -2 18 -17 22 -32z m-439 7 c-6 -3 -10 -8
-7 -13 3 -4 -6 -10 -20 -12 -18 -4 -25 -1 -25 11 0 11 10 16 33 17 17 1 26 -1
19 -3z m473 -13 c3 -5 3 -15 -1 -21 -6 -11 -23 6 -24 24 0 10 18 9 25 -3z
m-494 -33 c-6 -8 -9 -16 -6 -19 3 -2 -2 -5 -10 -5 -18 0 -19 9 -3 25 16 16 33
15 19 -1z m6076 -1 c-3 -7 0 -19 6 -25 9 -9 7 -11 -8 -5 -36 13 -38 17 -20 31
24 17 28 17 22 -1z m-77 -15 c5 -11 16 -26 23 -33 10 -10 11 -16 3 -24 -8 -7
-19 -3 -36 13 -21 20 -22 23 -7 23 11 0 15 5 11 11 -3 6 -15 9 -25 6 -19 -5
-25 3 -12 16 12 13 32 7 43 -12z m265 -3 c-12 -7 -21 -6 -28 2 -9 10 -8 12 6
7 9 -4 17 -2 17 4 0 6 5 7 11 3 8 -5 6 -10 -6 -16z m-6600 1 c11 -17 -1 -21
-15 -4 -8 9 -8 15 -2 15 6 0 14 -5 17 -11z m790 -7 c-3 -3 -11 0 -18 7 -9 10
-8 11 6 5 10 -3 15 -9 12 -12z m5870 -10 c-3 -3 -11 0 -18 7 -9 10 -8 11 6 5
10 -3 15 -9 12 -12z m-95 4 c0 -2 -8 -10 -17 -17 -16 -13 -17 -12 -4 4 13 16
21 21 21 13z m-5371 -32 c3 -16 1 -17 -13 -5 -19 16 -21 34 -3 29 6 -3 14 -13
16 -24z m6826 4 c-9 -30 -33 -54 -42 -44 -5 5 -2 11 5 13 6 3 12 13 12 22 0
19 8 31 22 31 5 0 6 -10 3 -22z m-1400 -6 c-3 -3 -11 0 -18 7 -9 10 -8 11 6 5
10 -3 15 -9 12 -12z m-172 -4 c19 -7 27 -17 27 -34 0 -13 5 -24 10 -24 6 0 10
-8 10 -17 -1 -16 -2 -16 -15 1 -8 11 -15 29 -15 40 0 10 -3 17 -6 13 -4 -3
-13 0 -21 8 -20 21 -26 19 -45 -12 -13 -21 -18 -23 -18 -10 0 9 5 17 11 17 6
0 9 6 6 13 -6 17 19 19 56 5z m-5806 -15 c2 -6 -4 -13 -13 -17 -15 -6 -15 -4
-3 10 12 15 11 16 -11 10 -19 -6 -21 -5 -10 3 17 12 32 10 37 -6z m76 10 c-17
-6 2 -43 21 -43 8 0 16 -7 20 -15 6 -17 -5 -20 -20 -5 -7 7 -11 6 -11 -4 0 -8
3 -14 6 -13 13 3 51 -25 51 -38 0 -19 -16 -19 -24 0 -3 9 -12 12 -23 8 -10 -3
-15 -3 -11 2 4 4 3 14 -3 21 -6 8 -9 20 -6 28 4 10 -2 17 -16 22 -12 3 -28 12
-36 18 -11 9 -9 12 15 17 36 8 53 9 37 2z m-128 -23 c3 -6 -1 -7 -9 -4 -18 7
-21 14 -7 14 6 0 13 -4 16 -10z m571 -28 c-9 -8 -26 10 -26 26 1 15 2 15 15
-2 8 -11 13 -21 11 -24z m122 26 c7 -7 12 -19 12 -27 0 -12 -5 -11 -18 5 -9
12 -24 24 -32 27 -10 4 -9 6 6 6 11 1 25 -4 32 -11z m-280 -20 c7 -7 12 -15
12 -20 0 -10 -31 2 -48 19 -11 11 -10 13 5 13 11 0 24 -5 31 -12z m-334 -13
c3 -8 1 -15 -4 -15 -6 0 -10 7 -10 15 0 8 2 15 4 15 2 0 6 -7 10 -15z m34 -10
c-3 -3 -9 2 -12 12 -6 14 -5 15 5 6 7 -7 10 -15 7 -18z m5702 11 c0 -3 -4 -8
-10 -11 -5 -3 -10 -1 -10 4 0 6 5 11 10 11 6 0 10 -2 10 -4z m-5765 -16 c3 -5
1 -10 -4 -10 -6 0 -11 5 -11 10 0 6 2 10 4 10 3 0 8 -4 11 -10z m545 0 c0 -5
-7 -7 -15 -4 -8 4 -15 8 -15 10 0 2 7 4 15 4 8 0 15 -4 15 -10z m-455 -50 c8
0 15 -5 15 -11 0 -5 -4 -8 -9 -5 -5 4 -12 0 -14 -6 -3 -8 -6 -5 -6 6 -1 11 -6
16 -15 13 -8 -3 -17 1 -20 10 -4 9 -13 13 -24 9 -15 -5 -15 -5 1 8 16 13 21
12 38 -5 10 -10 26 -19 34 -19z m267 14 c-5 -27 -5 -27 -20 1 -9 17 -7 21 7
22 14 1 17 -4 13 -23z m-398 0 c3 -8 2 -12 -4 -9 -6 3 -10 10 -10 16 0 14 7
11 14 -7z m651 6 c3 -5 -1 -10 -9 -10 -9 0 -16 5 -16 10 0 6 4 10 9 10 6 0 13
-4 16 -10z m5165 6 c0 -2 -7 -7 -16 -10 -8 -3 -12 -2 -9 4 6 10 25 14 25 6z
m197 -11 c0 -8 -4 -15 -8 -15 -11 0 -20 16 -12 24 11 11 20 7 20 -9z m-257
-15 c0 -5 -2 -10 -4 -10 -3 0 -8 5 -11 10 -3 6 -1 10 4 10 6 0 11 -4 11 -10z
m-6490 -15 c0 -8 -7 -15 -15 -15 -13 0 -14 3 -3 15 16 18 18 18 18 0z m6190
-25 c0 -13 -12 -12 -32 4 -10 7 -15 16 -12 19 9 8 44 -11 44 -23z m-5250 9
c12 -9 11 -10 -8 -6 -12 3 -20 1 -16 -4 3 -5 0 -9 -5 -9 -6 0 -11 7 -11 15 0
17 19 19 40 4z m210 1 c10 -6 12 -12 4 -20 -7 -7 -16 -5 -29 10 -14 15 -15 20
-4 20 8 0 21 -5 29 -10z m-267 -27 c-7 -18 -10 -19 -21 -7 -11 12 -10 14 3 14
8 0 15 5 15 12 0 6 2 9 5 6 3 -3 2 -14 -2 -25z m129 4 c7 -15 7 -18 -2 -12 -7
4 -16 1 -21 -6 -7 -11 -9 -10 -9 4 0 9 -4 17 -10 17 -5 0 -10 4 -10 9 0 17 41
7 52 -12z m188 1 c0 -13 -23 -5 -28 10 -2 7 2 10 12 6 9 -3 16 -11 16 -16z
m5150 12 c0 -5 -4 -10 -10 -10 -5 0 -10 5 -10 10 0 6 5 10 10 10 6 0 10 -4 10
-10z m-5541 -7 c14 11 14 10 2 -6 -9 -12 -17 -14 -26 -7 -6 5 -16 6 -20 2 -5
-4 -5 -1 0 6 5 10 10 11 18 3 7 -7 15 -7 26 2z m561 -3 c0 -6 -7 -10 -15 -10
-8 0 -18 0 -22 -1 -4 0 -9 3 -10 8 -2 5 8 10 22 11 14 1 25 -3 25 -8z m2705 0
c3 -5 1 -10 -4 -10 -6 0 -11 5 -11 10 0 6 2 10 4 10 3 0 8 -4 11 -10z m-3133
-7 c-6 -2 -10 -9 -6 -14 3 -5 0 -9 -5 -9 -12 0 -14 13 -4 23 3 4 11 7 17 6 6
0 5 -3 -2 -6z m114 -2 c-4 -5 0 -12 6 -14 8 -3 6 -6 -4 -6 -10 -1 -18 6 -18
14 0 8 5 15 11 15 5 0 8 -4 5 -9z m362 -10 c3 -8 -1 -12 -9 -9 -7 2 -15 10
-17 17 -3 8 1 12 9 9 7 -2 15 -10 17 -17z m2382 4 c7 -8 8 -15 2 -15 -5 0 -15
7 -22 15 -7 8 -8 15 -2 15 5 0 15 -7 22 -15z m2420 -6 c0 -11 -4 -17 -10 -14
-5 3 -10 13 -10 21 0 8 5 14 10 14 6 0 10 -9 10 -21z m-5655 1 c3 -5 -1 -10
-9 -10 -9 0 -16 5 -16 10 0 6 4 10 9 10 6 0 13 -4 16 -10z m5863 -15 c2 -1 -9
-5 -23 -7 -14 -3 -23 -3 -21 0 3 3 -2 11 -12 18 -14 12 -12 12 18 2 19 -6 36
-12 38 -13z m-5643 -3 c-3 -3 -11 0 -18 7 -9 10 -8 11 6 5 10 -3 15 -9 12 -12z
m194 -16 c0 -7 -2 -6 -6 2 -2 6 -9 10 -14 6 -5 -3 -9 2 -9 12 0 13 3 14 15 4
8 -7 15 -18 14 -24z m-66 4 c3 -11 2 -20 -3 -20 -4 0 -10 9 -13 20 -3 11 -2
20 3 20 4 0 10 -9 13 -20z m177 10 c0 -5 -5 -10 -11 -10 -5 0 -7 5 -4 10 3 6
8 10 11 10 2 0 4 -4 4 -10z m5068 -29 c-5 -2 -17 5 -26 14 -10 10 -11 15 -4
11 7 -4 12 -2 12 5 0 7 6 4 14 -7 9 -12 11 -20 4 -23z m27 28 c11 -17 -1 -21
-15 -4 -8 9 -8 15 -2 15 6 0 14 -5 17 -11z m175 1 c0 -5 -7 -7 -15 -4 -8 4
-15 8 -15 10 0 2 7 4 15 4 8 0 15 -4 15 -10z m-5420 -10 c0 -5 -2 -10 -4 -10
-3 0 -8 5 -11 10 -3 6 -1 10 4 10 6 0 11 -4 11 -10z m180 6 c0 -3 -4 -8 -10
-11 -5 -3 -10 -1 -10 4 0 6 5 11 10 11 6 0 10 -2 10 -4z m-315 -24 c-3 -3 -11
0 -18 7 -9 10 -8 11 6 5 10 -3 15 -9 12 -12z m4794 9 c9 -6 21 -5 32 2 26 16
116 -15 167 -59 28 -23 40 -29 35 -17 -6 15 -4 16 9 5 11 -9 17 -9 20 -2 4 13
38 3 38 -11 0 -5 -9 -9 -20 -9 -11 0 -20 -5 -20 -11 0 -5 -4 -7 -10 -4 -7 4
-7 -3 0 -20 17 -45 13 -75 -11 -75 -11 0 -17 5 -14 10 3 6 0 10 -8 10 -8 0
-31 14 -52 30 -22 17 -60 43 -87 57 -26 14 -48 30 -48 34 0 4 -22 9 -48 11
-37 2 -53 -1 -68 -15 -21 -21 -69 -19 -69 3 0 8 14 21 30 29 17 8 41 20 55 27
29 16 50 17 69 5z m526 -11 c3 -5 2 -10 -4 -10 -5 0 -13 5 -16 10 -3 6 -2 10
4 10 5 0 13 -4 16 -10z m95 0 c-8 -5 -19 -10 -25 -10 -5 0 -3 5 5 10 8 5 20
10 25 10 6 0 3 -5 -5 -10z m145 -8 c-3 -3 -11 0 -18 7 -9 10 -8 11 6 5 10 -3
15 -9 12 -12z m-5775 -29 c0 -13 -3 -13 -15 -3 -8 7 -15 19 -15 27 0 13 3 13
15 3 8 -7 15 -19 15 -27z m833 30 c-7 -2 -19 -2 -25 0 -7 3 -2 5 12 5 14 0 19
-2 13 -5z m-989 -19 c17 -16 21 -34 9 -34 -11 0 -26 12 -42 33 -12 15 -11 17
2 17 9 0 23 -7 31 -16z m6329 -34 c-2 -40 -8 -58 -17 -49 -8 8 -16 81 -10 90
14 23 29 0 27 -41z m-517 -17 c0 -6 -6 -9 -13 -6 -11 4 -13 -1 -8 -23 l6 -29
-15 25 c-18 29 -20 44 -6 35 6 -3 10 -2 10 4 0 5 -4 13 -10 16 -5 3 -10 13
-10 22 0 12 5 11 23 -8 12 -13 23 -29 23 -36z m-56 27 c0 -5 -2 -10 -4 -10 -3
0 -8 5 -11 10 -3 6 -1 10 4 10 6 0 11 -4 11 -10z m83 -30 c-3 -12 -8 -19 -11
-16 -5 6 5 36 12 36 2 0 2 -9 -1 -20z m-234 -21 c13 -17 21 -33 18 -35 -8 -8
-37 8 -37 21 0 8 -7 21 -16 29 -12 13 -13 16 -2 16 8 0 24 -14 37 -31z m-107
-14 c19 -23 18 -28 -6 -19 -9 3 -13 11 -9 18 4 7 2 7 -7 -1 -15 -14 -54 2 -44
18 9 15 47 6 66 -16z m178 0 c0 -8 -7 -15 -15 -15 -13 0 -14 3 -3 15 16 18 18
18 18 0z m58 -20 c-3 -3 -9 2 -12 12 -6 14 -5 15 5 6 7 -7 10 -15 7 -18z m103
8 c12 -16 12 -17 -2 -6 -9 7 -20 9 -24 5 -5 -4 -5 -1 -1 6 9 16 11 15 27 -5z
m42 10 c-7 -2 -19 -2 -25 0 -7 3 -2 5 12 5 14 0 19 -2 13 -5z m-176 -22 c0
-11 -7 -17 -14 -14 -9 4 -9 8 0 19 16 17 16 17 14 -5z m55 -17 c-8 -14 -9 -13
-9 10 0 18 3 24 9 18 7 -7 7 -16 0 -28z m-5727 16 c-3 -5 -10 -10 -16 -10 -5
0 -9 5 -9 10 0 6 7 10 16 10 8 0 12 -4 9 -10z m5540 0 c3 -5 -1 -10 -9 -10 -9
0 -16 5 -16 10 0 6 4 10 9 10 6 0 13 -4 16 -10z m1378 -56 c-24 -18 -69 -18
-77 1 -8 22 4 45 28 55 16 7 26 3 44 -17 22 -24 22 -26 5 -39z m-6543 30 c0
-17 -5 -17 -32 -3 -16 8 -18 13 -8 19 17 11 40 1 40 -16z m5101 0 l24 -27 -27
18 c-16 9 -28 21 -28 26 0 14 5 11 31 -17z m149 11 c-7 -8 -17 -12 -22 -9 -6
4 -5 10 3 15 22 14 33 10 19 -6z m69 -7 c-1 -7 -1 -24 0 -38 1 -18 4 -21 10
-11 6 10 11 5 16 -18 4 -18 13 -35 21 -38 8 -3 14 -11 14 -19 0 -15 26 -9 51
13 9 7 19 10 23 6 4 -4 2 5 -3 20 -15 39 -14 47 7 40 15 -6 16 -5 2 12 -8 10
-10 16 -3 12 7 -4 14 1 18 12 7 23 35 17 35 -8 0 -14 2 -14 10 -1 7 11 10 12
10 2 0 -16 24 -42 38 -42 6 0 12 -7 16 -15 6 -16 66 -22 66 -6 0 11 58 25 95
22 36 -3 50 -15 39 -33 -9 -13 -21 -43 -51 -128 -8 -25 -20 -48 -25 -51 -6 -4
-6 -19 -1 -40 8 -29 6 -37 -15 -56 -34 -32 -58 -29 -99 12 -98 98 -121 105
-148 46 -21 -48 -63 -70 -100 -53 -22 10 -46 43 -61 85 -3 9 -13 17 -20 17
-10 0 -14 13 -14 41 0 31 -3 40 -14 36 -11 -5 -12 0 -2 26 12 35 24 50 46 61
9 3 5 4 -7 2 -13 -2 -26 0 -29 5 -3 5 0 9 5 9 24 0 9 29 -16 32 -26 4 -26 5
-8 13 11 5 26 16 33 24 12 14 13 14 8 -1 -3 -12 1 -16 14 -15 11 1 17 3 15 5
-3 4 16 31 23 32 2 0 2 -6 1 -12z m-99 -18 c0 -5 -9 -10 -20 -10 -11 0 -20 5
-20 10 0 6 9 10 20 10 11 0 20 -4 20 -10z m-6540 -10 c0 -5 -5 -10 -11 -10 -5
0 -7 5 -4 10 3 6 8 10 11 10 2 0 4 -4 4 -10z m1060 6 c0 -3 -4 -8 -10 -11 -5
-3 -10 -1 -10 4 0 6 5 11 10 11 6 0 10 -2 10 -4z m5420 -37 c9 -15 7 -19 -5
-19 -9 0 -13 5 -10 10 3 6 -1 10 -9 10 -16 0 -21 12 -10 23 9 9 22 0 34 -24z
m234 -8 c-2 -2 -10 1 -17 7 -8 7 -17 9 -21 5 -4 -4 -4 0 -1 9 6 15 8 15 24 0
10 -9 16 -19 15 -21z m536 4 c7 -8 17 -12 23 -8 6 3 7 1 3 -5 -8 -14 -45 -15
-65 -3 -15 10 -7 31 13 31 8 0 19 -7 26 -15z m-783 -26 c19 -14 21 -18 7 -23
-25 -9 -41 -7 -24 4 8 5 12 10 8 11 -29 5 -58 20 -58 29 0 12 42 -1 67 -21z
m-339 -4 c0 -26 -12 -33 -23 -15 -4 6 -1 17 5 25 16 20 18 19 18 -10z m567 5
c3 -5 1 -10 -4 -10 -6 0 -11 5 -11 10 0 6 2 10 4 10 3 0 8 -4 11 -10z m-682
-6 c20 -7 9 -44 -13 -44 -10 0 -23 6 -29 14 -10 11 -8 17 6 25 22 13 18 12 36
5z m547 -4 c12 -8 11 -10 -7 -10 -13 0 -23 5 -23 10 0 13 11 13 30 0z m-39
-25 c5 4 9 1 9 -5 0 -17 -25 -6 -26 11 -1 9 1 10 3 1 3 -7 9 -10 14 -7z m19
-32 c-11 -17 -11 -17 -6 0 3 10 6 24 7 30 0 9 2 9 5 0 3 -7 0 -20 -6 -30z
m-390 17 c0 -5 6 -10 14 -10 22 0 28 -31 9 -46 -16 -12 -20 -11 -35 7 -22 26
-23 59 -3 59 8 0 15 -4 15 -10z m2434 -19 c105 -46 160 -114 158 -197 -1 -104
-100 -186 -206 -170 -53 8 -152 66 -205 120 -95 97 -72 222 49 270 31 12 156
-2 204 -23z m-8177 -33 c-3 -7 -5 -2 -5 12 0 14 2 19 5 13 2 -7 2 -19 0 -25z
m5673 22 c11 -7 11 -10 2 -10 -7 0 -11 -4 -7 -9 8 -13 -23 -41 -45 -41 -18 0
-40 27 -40 49 0 9 23 17 60 19 8 1 22 -3 30 -8z m437 4 c-3 -3 -12 -4 -19 -1
-8 3 -5 6 6 6 11 1 17 -2 13 -5z m-6230 -19 c9 -25 -4 -29 -17 -6 -7 15 -7 21
0 21 6 0 13 -7 17 -15z m163 -22 c0 -32 -5 -28 -14 10 -4 19 -3 26 4 22 5 -3
10 -18 10 -32z m914 16 c-8 -14 -24 -10 -24 6 0 9 6 12 15 9 8 -4 12 -10 9
-15z m-406 -8 c3 -8 -1 -12 -9 -9 -7 2 -15 10 -17 17 -3 8 1 12 9 9 7 -2 15
-10 17 -17z m5483 10 c6 10 9 8 9 -8 0 -13 8 -24 20 -28 11 -3 20 -10 20 -15
0 -5 6 -10 13 -13 6 -2 1 -2 -13 0 -22 3 -23 2 -7 -8 18 -10 18 -12 -2 -30
-19 -18 -23 -18 -49 -5 -39 20 -50 36 -50 71 0 41 6 47 30 34 16 -9 23 -8 29
2z m-822 -28 c0 -11 -3 -13 -6 -5 -2 6 -10 9 -15 6 -7 -4 -8 -2 -4 4 11 18 26
14 25 -5z m151 -13 c0 -18 -19 -11 -30 11 -11 19 -10 20 9 9 12 -6 21 -15 21
-20z m-1240 10 c0 -5 -4 -10 -10 -10 -5 0 -10 5 -10 10 0 6 5 10 10 10 6 0 10
-4 10 -10z m2938 1 c10 -6 9 -10 -7 -14 -14 -3 -21 0 -21 9 0 16 9 18 28 5z
m-7178 -11 c0 -5 -4 -10 -10 -10 -5 0 -10 5 -10 10 0 6 5 10 10 10 6 0 10 -4
10 -10z m-285 -30 c-5 -8 -11 -8 -17 -2 -6 6 -7 16 -3 22 5 8 11 8 17 2 6 -6
7 -16 3 -22z m5609 -9 c7 -9 0 -8 -17 4 -21 13 -25 20 -15 26 8 5 15 3 17 -4
2 -7 9 -18 15 -26z m61 29 c3 -5 0 -7 -8 -4 -8 3 -18 1 -22 -5 -8 -13 -25 -14
-25 -2 0 8 15 15 42 20 4 0 10 -3 13 -9z m30 0 c3 -5 1 -10 -4 -10 -6 0 -11 5
-11 10 0 6 2 10 4 10 3 0 8 -4 11 -10z m1648 -11 c13 0 17 -7 15 -27 -1 -15 1
-33 5 -39 4 -6 3 -23 -2 -36 -9 -22 -6 -26 19 -37 39 -16 99 -16 136 0 28 12
34 12 48 -2 9 -9 16 -20 16 -25 0 -14 46 -30 66 -22 10 4 36 8 57 8 33 1 37
-2 37 -24 0 -15 -6 -25 -14 -25 -8 0 -19 -13 -24 -29 -15 -42 -47 -57 -78 -36
-13 8 -24 20 -24 26 0 6 -6 9 -14 6 -7 -3 -29 -2 -48 2 -32 7 -34 6 -31 -13 5
-31 -56 -66 -114 -66 -52 0 -173 52 -173 75 0 21 -41 59 -75 70 -26 9 -30 16
-33 53 -3 35 0 42 15 43 10 0 32 19 48 42 32 44 91 71 130 61 11 -3 28 -6 38
-5z m-7035 -17 c6 -18 -15 -14 -22 4 -4 10 -1 14 6 12 6 -2 14 -10 16 -16z
m5469 12 c-3 -3 -12 -4 -19 -1 -8 3 -5 6 6 6 11 1 17 -2 13 -5z m-1281 -31
c-8 -8 -36 5 -36 17 0 7 6 7 21 0 11 -7 18 -14 15 -17z m1255 17 c5 0 9 -6 9
-13 0 -8 -6 -14 -14 -14 -8 0 -15 3 -14 6 2 19 -4 22 -17 11 -8 -7 -15 -9 -15
-4 0 5 -5 2 -11 -6 -9 -13 -10 -13 -6 0 2 8 10 14 16 13 6 -2 11 2 11 8 0 6 7
8 16 5 9 -3 20 -6 25 -6z m-4256 -25 c22 -22 34 -55 19 -55 -12 0 -74 56 -74
68 0 20 29 14 55 -13z m-1445 -11 c0 -14 -3 -14 -15 -4 -8 7 -15 14 -15 16 0
2 7 4 15 4 8 0 15 -7 15 -16z m5475 6 c3 -5 1 -10 -4 -10 -6 0 -11 5 -11 10 0
6 2 10 4 10 3 0 8 -4 11 -10z m-136 -14 c15 -8 20 -16 12 -20 -6 -4 -11 -3
-11 2 0 5 -10 14 -22 20 -13 6 -18 11 -13 11 6 0 21 -6 34 -13z m570 -5 c30
-23 25 -56 -8 -56 -27 0 -68 46 -57 64 10 16 38 13 65 -8z m-351 -13 c8 -8 15
-8 28 3 16 13 16 12 3 -8 -17 -28 -45 -30 -59 -3 -8 15 -8 20 3 20 7 0 18 -5
25 -12z m-228 -14 c0 -2 -7 -4 -15 -4 -8 0 -15 4 -15 10 0 5 7 7 15 4 8 -4 15
-8 15 -10z m310 6 c0 -5 -4 -10 -10 -10 -5 0 -10 5 -10 10 0 6 5 10 10 10 6 0
10 -4 10 -10z m-4400 -10 c0 -5 -5 -10 -11 -10 -5 0 -7 5 -4 10 3 6 8 10 11
10 2 0 4 -4 4 -10z m4127 -12 c-3 -8 -6 -5 -6 6 -1 11 2 17 5 13 3 -3 4 -12 1
-19z m243 8 c0 -3 -4 -8 -10 -11 -5 -3 -10 -1 -10 4 0 6 5 11 10 11 6 0 10 -2
10 -4z m-4242 -24 c2 -7 -3 -12 -12 -12 -9 0 -16 7 -16 16 0 17 22 14 28 -4z
m4142 14 c0 -2 -7 -7 -16 -10 -8 -3 -12 -2 -9 4 6 10 25 14 25 6z m-4190 -16
c0 -5 -4 -10 -10 -10 -5 0 -10 5 -10 10 0 6 5 10 10 10 6 0 10 -4 10 -10z
m4123 -25 c-3 -9 -8 -14 -10 -11 -3 3 -2 9 2 15 9 16 15 13 8 -4z m-4123 -5
c0 -5 -5 -10 -11 -10 -5 0 -7 5 -4 10 3 6 8 10 11 10 2 0 4 -4 4 -10z m3840
-10 c0 -5 -5 -10 -11 -10 -5 0 -7 5 -4 10 3 6 8 10 11 10 2 0 4 -4 4 -10z
m330 0 c-8 -5 -19 -10 -25 -10 -5 0 -3 5 5 10 8 5 20 10 25 10 6 0 3 -5 -5
-10z m68 -15 c18 -3 37 -15 42 -26 8 -14 17 -18 34 -13 16 4 23 1 23 -9 0 -8
-7 -13 -16 -10 -25 5 -47 -13 -34 -29 9 -11 0 -12 -49 -8 l-61 5 -2 43 c-1 23
2 42 6 42 5 0 9 8 9 18 0 11 3 13 8 6 4 -6 22 -15 40 -19z m-4278 -20 c-7 -8
-17 -12 -22 -9 -5 3 -1 12 9 19 22 17 30 11 13 -10z m4034 9 c3 -8 2 -12 -4
-9 -6 3 -10 10 -10 16 0 14 7 11 14 -7z m116 -4 c-19 -12 -30 -12 -30 -1 0 10
31 20 40 14 2 -2 -2 -8 -10 -13z m-30 -20 c5 0 7 -7 4 -15 -4 -8 -14 -15 -23
-14 -9 0 -11 3 -5 5 6 3 10 17 8 32 -2 15 -1 19 2 10 3 -10 9 -18 14 -18z
m-4220 10 c0 -5 -4 -10 -10 -10 -5 0 -10 5 -10 10 0 6 5 10 10 10 6 0 10 -4
10 -10z m155 0 c3 -5 1 -10 -4 -10 -6 0 -11 5 -11 10 0 6 2 10 4 10 3 0 8 -4
11 -10z m3675 -4 l45 -15 -37 0 c-20 -1 -40 4 -43 9 -4 6 -11 7 -17 4 -7 -4
-8 -2 -4 4 4 7 8 12 9 12 1 0 22 -7 47 -14z m-4755 -16 c3 -5 1 -10 -4 -10 -6
0 -11 5 -11 10 0 6 2 10 4 10 3 0 8 -4 11 -10z m5015 -2 c0 -6 3 -9 6 -5 11
10 56 -44 55 -66 -1 -48 -5 -59 -28 -74 -23 -15 -26 -14 -55 13 -18 16 -37 34
-43 39 -6 6 -14 20 -17 33 -5 18 -3 22 8 18 9 -4 18 3 24 17 5 12 9 16 9 10 1
-21 21 -14 21 7 0 11 5 20 10 20 6 0 10 -5 10 -12z m-164 -36 c-9 -8 -26 10
-26 26 1 15 2 15 15 -2 8 -11 13 -21 11 -24z m54 28 c0 -5 -4 -10 -10 -10 -5
0 -10 5 -10 10 0 6 5 10 10 10 6 0 10 -4 10 -10z m-5220 -34 c0 -5 -7 -3 -15
4 -8 7 -12 17 -9 22 7 10 24 -9 24 -26z m5170 -48 c0 -4 -7 -5 -15 -3 -51 16
-49 15 -29 29 16 12 20 12 31 -3 7 -9 13 -19 13 -23z m554 16 c3 -8 2 -12 -4
-9 -6 3 -10 10 -10 16 0 14 7 11 14 -7z m501 -3 c3 -5 1 -12 -4 -15 -5 -3 -7
-15 -4 -25 6 -22 -11 -35 -34 -27 -12 5 -13 9 -4 20 9 11 9 15 -1 19 -8 3 -6
6 6 6 12 1 16 6 12 16 -6 16 19 21 29 6z m-288 -109 c8 -5 9 -19 4 -45 -7 -29
-6 -37 5 -37 8 0 14 -4 14 -10 0 -5 7 -10 15 -10 9 0 18 -7 21 -15 4 -8 13
-15 20 -15 8 0 19 -11 24 -24 5 -13 14 -27 19 -31 16 -10 13 -42 -5 -49 -9 -3
-25 -6 -36 -6 -12 0 -26 -7 -33 -17 -20 -27 -46 -10 -39 26 5 21 0 38 -15 59
-24 34 -26 48 -8 56 9 3 7 9 -5 19 -10 8 -15 16 -12 19 3 3 -7 8 -21 12 -25 6
-32 27 -19 60 6 17 50 22 71 8z m-1117 -52 c0 -5 -4 -10 -10 -10 -5 0 -10 5
-10 10 0 6 5 10 10 10 6 0 10 -4 10 -10z m2269 -43 c-10 -12 -19 -24 -19 -29
0 -4 -11 -8 -25 -8 -19 0 -25 5 -25 23 0 43 43 73 71 49 16 -14 16 -16 -2 -35z
m-2226 31 c6 -19 -3 -39 -15 -32 -6 4 -5 10 3 15 11 7 11 9 -1 9 -9 0 -21 -5
-28 -12 -6 -6 -15 -9 -19 -5 -7 8 26 36 44 37 6 0 13 -6 16 -12z m763 -45 c13
-51 67 -93 121 -93 35 0 77 -29 81 -55 1 -13 -10 -32 -28 -50 -28 -27 -36 -29
-123 -32 -109 -3 -180 14 -185 43 -1 11 9 41 23 67 14 27 25 55 25 63 0 19 38
56 50 49 6 -4 10 3 10 14 0 30 18 26 26 -6z m-665 -53 c10 0 9 -4 -3 -16 -21
-21 -38 -10 -38 24 1 25 2 25 14 10 7 -10 19 -18 27 -18z m-549 -37 c-21 -15
-38 -16 -63 -3 -15 9 -17 15 -9 30 14 27 52 30 72 6 15 -19 15 -21 0 -33z
m717 -86 c6 -8 7 -17 3 -21 -4 -4 -2 -7 3 -6 22 5 35 -1 35 -15 0 -10 -10 -15
-27 -15 -34 1 -58 18 -67 48 -6 19 -4 22 17 22 14 0 30 -6 36 -13z m-1634 -58
c62 -29 139 -101 164 -152 52 -108 2 -233 -89 -222 -67 9 -220 107 -220 142 0
6 -3 13 -8 15 -11 5 -72 136 -72 156 0 18 53 75 80 86 25 10 97 -2 145 -25z
m4765 22 c14 -4 20 -9 15 -12 -6 -3 -28 0 -50 7 -29 9 -33 12 -15 12 14 0 36
-3 50 -7z m-30 -34 c0 -8 -7 -14 -15 -14 -8 0 -15 6 -15 14 0 7 7 13 15 13 8
0 15 -6 15 -13z m-4266 -37 c12 -12 -10 -39 -41 -51 -54 -20 -100 33 -50 58
24 12 76 8 91 -7z m121 -96 c21 -22 36 -52 40 -76 10 -57 -7 -69 -41 -29 -23
28 -33 32 -65 29 -31 -3 -40 1 -50 19 -13 24 1 53 26 53 7 0 15 9 18 20 8 30
36 24 72 -16z m199 0 c5 -12 2 -15 -10 -10 -8 3 -18 6 -20 6 -3 0 -2 5 1 10 9
15 22 12 29 -6z m146 -13 c0 -6 -9 -9 -19 -8 -11 0 -17 5 -15 9 7 11 34 10 34
-1z m695 -149 c5 -29 3 -32 -19 -32 -19 0 -24 5 -23 20 1 11 7 20 14 20 7 0
13 8 13 17 0 25 8 11 15 -25z m-652 -16 c20 -2 43 -9 52 -16 35 -29 151 -28
181 3 4 4 24 7 44 7 30 0 39 -5 48 -25 17 -38 15 -53 -12 -70 -20 -13 -29 -14
-47 -5 -17 9 -27 9 -45 -1 -13 -7 -24 -16 -24 -21 0 -4 -6 -8 -13 -8 -8 0 -26
-13 -40 -30 -15 -16 -35 -30 -45 -30 -22 0 -82 36 -82 50 0 5 -7 10 -15 10 -8
0 -15 8 -15 19 0 10 -9 29 -19 43 -23 29 -36 72 -26 88 6 9 9 9 15 0 4 -6 23
-13 43 -14z m-3023 -6 c0 -4 -6 -10 -14 -13 -10 -4 -12 0 -9 14 5 18 23 18 23
-1z m90 -9 c0 -6 -49 -31 -62 -31 -4 0 -8 7 -8 16 0 11 6 15 20 11 15 -4 20 0
20 15 0 17 3 18 15 8 8 -7 15 -15 15 -19z m3890 -33 c64 -19 127 -56 184 -108
31 -29 56 -58 56 -66 0 -8 4 -14 9 -14 20 0 55 -105 54 -166 -2 -211 -224
-296 -403 -154 -21 16 -41 30 -44 30 -13 0 -78 66 -112 111 -45 62 -65 121
-66 191 0 58 28 148 46 148 5 0 18 7 27 16 33 30 168 36 249 12z m-3985 2 c3
-5 1 -10 -4 -10 -6 0 -11 5 -11 10 0 6 2 10 4 10 3 0 8 -4 11 -10z m2569 -150
c20 -7 26 -17 26 -38 0 -26 -3 -28 -30 -24 -32 5 -42 22 -13 22 14 0 13 3 -5
16 -12 8 -20 20 -17 25 8 11 8 11 39 -1z m-1564 -60 c30 -30 25 -40 -20 -40
-28 0 -40 -4 -40 -14 0 -9 9 -13 24 -12 28 3 61 -18 51 -34 -4 -6 -13 -9 -19
-7 -7 3 -19 1 -27 -4 -13 -8 46 -14 94 -10 28 3 20 -16 -18 -39 -42 -26 -97
-25 -137 3 -31 21 -37 42 -10 35 15 -4 17 1 13 36 -3 34 -5 37 -13 21 -8 -18
-8 -18 -4 3 3 17 -1 22 -17 23 -22 2 -22 2 -1 6 12 2 26 15 32 29 15 31 63 33
92 4z m668 -219 c74 -29 149 -97 182 -164 33 -67 36 -92 16 -141 -33 -80 -108
-122 -199 -112 -29 3 -65 7 -82 9 -44 5 -75 17 -75 28 0 6 -4 8 -9 5 -5 -4
-28 29 -51 71 -39 72 -42 83 -38 138 10 146 124 220 256 166z m-1293 -131 c77
-37 160 -116 211 -200 37 -62 39 -69 39 -152 0 -86 0 -87 -35 -123 -53 -56
-137 -95 -205 -95 -116 0 -280 127 -347 269 -26 57 -30 73 -26 136 5 111 54
166 173 198 41 11 130 -4 190 -33z m1041 -398 c-2 -4 -21 -9 -41 -10 -23 -2
-34 1 -30 8 3 5 22 10 41 10 19 0 33 -4 30 -8z"/>
<path d="M10130 6605 c-11 -13 -9 -15 11 -12 12 2 25 9 27 15 5 17 -23 15 -38
-3z"/>
<path d="M10098 6543 c7 -3 16 -2 19 1 4 3 -2 6 -13 5 -11 0 -14 -3 -6 -6z"/>
<path d="M4840 6565 c0 -9 -7 -18 -15 -21 -8 -4 -12 -10 -9 -15 3 -5 -2 -9
-10 -9 -9 0 -16 -5 -16 -11 0 -5 13 -2 30 8 17 9 30 20 30 24 0 4 3 14 6 23 3
9 1 16 -5 16 -6 0 -11 -7 -11 -15z"/>
<path d="M4860 6511 c0 -5 -8 -12 -17 -14 -11 -3 -7 -5 10 -6 18 -1 27 4 27
14 0 8 -4 15 -10 15 -5 0 -10 -4 -10 -9z"/>
<path d="M4896 6476 c7 -19 20 -21 30 -3 4 6 4 9 -1 5 -4 -4 -14 -3 -22 4 -11
8 -12 7 -7 -6z"/>
<path d="M5091 6463 c-16 -17 -11 -25 8 -14 7 5 12 13 10 19 -2 6 -10 4 -18
-5z"/>
<path d="M5130 6400 c-9 -6 -10 -10 -3 -10 6 0 15 5 18 10 8 12 4 12 -15 0z"/>
<path d="M5057 6385 c-4 -8 -2 -17 3 -20 6 -4 10 3 10 14 0 25 -6 27 -13 6z"/>
<path d="M5090 6363 c0 -14 2 -15 9 -5 7 11 13 9 30 -10 16 -17 20 -18 15 -5
-6 16 -34 37 -48 37 -3 0 -6 -8 -6 -17z"/>
<path d="M5160 6366 c0 -3 9 -10 20 -16 11 -6 20 -8 20 -6 0 3 -9 10 -20 16
-11 6 -20 8 -20 6z"/>
<path d="M5147 6306 c-4 -10 -1 -13 8 -9 8 3 12 9 9 14 -7 12 -11 11 -17 -5z"/>
<path d="M5226 6311 c-4 -5 -2 -12 3 -15 5 -4 12 -2 15 3 4 5 2 12 -3 15 -5 4
-12 2 -15 -3z"/>
<path d="M5277 6299 c7 -7 15 -10 18 -7 3 3 -2 9 -12 12 -14 6 -15 5 -6 -5z"/>
<path d="M5191 6283 c7 -12 15 -20 18 -17 3 2 -3 12 -13 22 -17 16 -18 16 -5
-5z"/>
<path d="M5335 6280 c3 -5 8 -10 11 -10 2 0 4 5 4 10 0 6 -5 10 -11 10 -5 0
-7 -4 -4 -10z"/>
<path d="M5180 6265 c0 -3 8 -18 18 -32 9 -15 13 -24 7 -21 -5 3 -16 -1 -23
-8 -12 -13 -10 -14 11 -9 14 4 28 2 32 -4 3 -6 11 -9 16 -6 5 4 9 2 9 -4 0 -5
9 -9 20 -8 32 2 23 15 -15 23 -36 6 -47 27 -20 38 8 3 15 11 14 18 0 10 -2 10
-6 1 -7 -18 -28 -16 -47 3 -9 8 -16 13 -16 9z"/>
<path d="M5290 6251 c0 -6 4 -12 8 -15 5 -3 9 1 9 9 0 8 -4 15 -9 15 -4 0 -8
-4 -8 -9z"/>
<path d="M5347 6221 c-16 -6 -16 -7 3 -23 21 -18 37 -8 23 16 -5 8 -15 11 -26
7z"/>
<path d="M5116 6181 c-3 -5 1 -14 9 -21 8 -7 15 -17 15 -22 0 -6 -7 -5 -15 2
-13 11 -14 10 -9 -4 10 -25 44 -40 58 -26 8 8 7 10 -4 5 -11 -4 -16 1 -17 16
-1 16 1 18 11 10 7 -6 16 -8 19 -4 4 3 13 1 20 -6 8 -6 22 -9 30 -5 14 5 15 1
7 -25 -5 -19 -5 -29 1 -26 5 4 9 1 9 -4 0 -6 -4 -11 -9 -11 -5 0 -12 -7 -15
-16 -5 -14 -4 -15 8 -5 8 7 20 10 26 6 7 -5 11 0 10 11 -5 42 -1 48 19 30 11
-10 25 -15 30 -11 6 3 14 -1 17 -9 3 -9 10 -13 15 -10 5 3 9 0 9 -6 0 -6 5 -8
10 -5 8 5 7 11 -1 21 -6 7 -15 12 -19 9 -5 -3 -10 0 -12 7 -3 7 -15 13 -28 13
-12 0 -28 9 -34 20 -16 29 -27 35 -71 35 -38 1 -39 1 -20 16 19 16 19 16 -5 9
-14 -4 -31 -10 -39 -13 -9 -3 -12 -1 -7 6 3 6 2 13 -3 16 -5 4 -12 2 -15 -3z"/>
<path d="M5324 6163 c4 -7 2 -13 -4 -13 -7 0 -6 -5 2 -14 9 -10 15 -11 20 -2
6 8 8 8 8 -1 0 -7 7 -13 16 -13 9 0 14 5 12 11 -2 6 -6 9 -10 7 -3 -2 -16 6
-29 17 -12 11 -19 14 -15 8z"/>
<path d="M5460 6131 c0 -10 19 -25 25 -20 1 2 -3 10 -11 17 -8 7 -14 8 -14 3z"/>
<path d="M5380 6094 c0 -9 28 -34 39 -34 24 0 18 19 -9 29 -17 5 -30 8 -30 5z"/>
<path d="M5530 6081 c0 -6 4 -13 10 -16 6 -3 7 1 4 9 -7 18 -14 21 -14 7z"/>
<path d="M5360 6020 c0 -5 5 -10 11 -10 5 0 7 5 4 10 -3 6 -8 10 -11 10 -2 0
-4 -4 -4 -10z"/>
<path d="M5300 6016 c0 -2 9 -6 20 -9 11 -3 20 -1 20 4 0 5 -9 9 -20 9 -11 0
-20 -2 -20 -4z"/>
<path d="M5394 6009 c-4 -7 -3 -10 3 -6 11 7 26 -19 19 -31 -2 -4 3 -13 10
-20 13 -12 14 -9 9 15 -5 22 -4 25 5 13 9 -12 11 -12 8 -1 -6 23 -45 45 -54
30z"/>
<path d="M5545 6000 c3 -5 8 -10 11 -10 2 0 4 5 4 10 0 6 -5 10 -11 10 -5 0
-7 -4 -4 -10z"/>
<path d="M5617 5983 c-3 -5 -2 -15 2 -22 5 -7 11 -9 14 -4 3 5 2 15 -2 22 -5
7 -11 9 -14 4z"/>
<path d="M5216 5961 c-3 -5 1 -11 9 -14 9 -4 12 -1 8 9 -6 16 -10 17 -17 5z"/>
<path d="M5290 5951 c0 -8 -6 -11 -16 -7 -14 5 -15 4 -4 -8 6 -9 15 -15 18
-14 21 4 63 -16 58 -28 -3 -8 -1 -14 5 -14 6 0 8 -4 4 -9 -3 -6 4 -8 15 -6 11
2 20 -1 20 -7 0 -7 5 -6 14 1 11 10 17 8 25 -6 8 -14 10 -14 10 -3 0 22 -19
44 -59 69 -39 23 -65 28 -55 9 4 -7 -3 -2 -14 12 -12 14 -21 19 -21 11z m109
-63 c10 -16 9 -19 -6 -16 -29 5 -45 35 -19 35 7 0 19 -9 25 -19z"/>
<path d="M5420 5920 c8 -5 20 -10 25 -10 6 0 3 5 -5 10 -8 5 -19 10 -25 10 -5
0 -3 -5 5 -10z"/>
<path d="M5600 5911 c0 -6 4 -11 9 -11 5 0 17 -8 27 -17 12 -12 16 -13 13 -4
-7 19 -49 47 -49 32z"/>
<path d="M5710 5879 c12 -16 25 -27 29 -23 3 4 0 9 -6 11 -7 3 -13 11 -13 18
0 7 -7 16 -16 19 -11 4 -10 -2 6 -25z"/>
<path d="M5448 5876 c3 -11 7 -15 10 -8 2 6 8 12 14 12 6 0 8 -7 4 -15 -3 -8
-2 -14 2 -14 23 4 32 -4 32 -24 0 -25 35 -65 47 -54 4 4 -2 14 -13 23 -18 14
-18 15 4 4 13 -6 26 -18 29 -26 3 -8 16 -14 29 -14 17 0 22 4 17 16 -3 9 0 20
7 24 8 5 9 10 2 14 -6 3 -13 -3 -17 -14 -3 -11 -11 -20 -16 -20 -14 0 -11 28
4 33 14 5 14 5 -40 40 -24 15 -43 23 -43 17 0 -15 -27 -12 -33 4 -3 7 -14 16
-25 18 -16 4 -18 2 -14 -16z m103 -41 c5 4 9 1 9 -5 0 -6 5 -8 12 -4 7 4 8 3
4 -4 -5 -8 -13 -8 -31 0 -26 12 -30 19 -17 32 4 4 8 1 10 -8 2 -9 8 -14 13
-11z"/>
<path d="M5654 5825 c11 -8 24 -15 30 -15 5 0 1 7 -10 15 -10 8 -23 14 -29 14
-5 0 -1 -6 9 -14z"/>
<path d="M5708 5823 c6 -2 10 -8 8 -12 -3 -4 4 -12 15 -19 10 -7 19 -9 19 -5
-1 16 -28 43 -41 42 -10 0 -11 -2 -1 -6z"/>
<path d="M5902 5770 c7 -11 17 -20 22 -20 5 0 1 9 -9 20 -10 11 -20 20 -22 20
-2 0 2 -9 9 -20z"/>
<path d="M5767 5739 c7 -7 15 -10 18 -7 3 3 -2 9 -12 12 -14 6 -15 5 -6 -5z"/>
<path d="M5820 5730 c17 -11 47 -14 36 -3 -3 4 -17 8 -29 10 -17 2 -19 1 -7
-7z"/>
<path d="M5870 5712 c0 -12 19 -26 26 -19 2 2 -2 10 -11 17 -9 8 -15 8 -15 2z"/>
<path d="M5714 5698 c2 -7 11 -12 20 -12 9 1 16 -2 16 -7 0 -5 4 -9 10 -9 5 0
7 7 3 16 -3 9 -13 14 -24 11 -10 -3 -20 -1 -23 4 -2 5 -3 4 -2 -3z"/>
<path d="M5925 5700 c-3 -5 0 -10 7 -10 10 0 9 -3 -1 -9 -12 -8 -8 -11 15 -17
16 -4 37 -13 46 -21 22 -19 52 -13 55 12 3 20 3 20 -6 0 -5 -11 -10 -15 -10
-8 -1 7 -7 10 -15 7 -8 -3 -30 9 -49 26 -21 18 -38 26 -42 20z"/>
<path d="M5784 5672 c1 -19 6 -28 19 -28 9 0 17 4 17 8 0 4 -4 8 -9 8 -5 0
-12 7 -15 16 -3 8 -2 12 4 9 17 -11 50 -14 50 -6 0 8 -33 21 -56 21 -6 0 -11
-13 -10 -28z"/>
<path d="M5880 5661 c0 -5 7 -12 16 -15 14 -5 15 -4 4 9 -14 17 -20 19 -20 6z"/>
<path d="M5735 5650 c3 -5 11 -10 16 -10 6 0 7 5 4 10 -3 6 -11 10 -16 10 -6
0 -7 -4 -4 -10z"/>
<path d="M6000 5571 c0 -5 5 -13 10 -16 6 -3 10 -2 10 4 0 5 -4 13 -10 16 -5
3 -10 2 -10 -4z"/>
<path d="M6119 5538 c-12 -22 -11 -22 8 -5 11 9 23 14 28 10 4 -5 5 -2 1 5
-11 18 -24 15 -37 -10z"/>
<path d="M6003 5498 c1 -20 6 -25 20 -22 14 2 17 -1 12 -14 -5 -13 -2 -13 13
3 18 20 18 20 -2 31 -13 6 -23 7 -27 1 -4 -6 -9 -1 -12 9 -3 12 -4 10 -4 -8z"/>
<path d="M6141 5453 c0 -6 -9 -10 -18 -8 -10 1 -12 0 -5 -2 16 -6 15 -13 -4
-27 -13 -10 -13 -12 5 -12 11 0 17 4 15 8 -3 4 -1 8 5 8 5 0 11 -5 13 -11 6
-17 66 -19 72 -3 3 8 1 14 -4 14 -6 0 -10 -4 -10 -10 0 -14 -59 23 -64 40 -2
8 -4 10 -5 3z"/>
<path d="M6070 5431 c0 -5 5 -13 10 -16 6 -3 10 -2 10 4 0 5 -4 13 -10 16 -5
3 -10 2 -10 -4z"/>
<path d="M6251 5394 c0 -11 3 -14 6 -6 3 7 2 16 -1 19 -3 4 -6 -2 -5 -13z"/>
<path d="M9110 6563 c0 -11 41 -36 48 -29 3 3 0 6 -6 6 -7 0 -11 5 -9 12 1 6
-6 14 -15 16 -10 2 -18 0 -18 -5z"/>
<path d="M9075 6550 c-3 -5 1 -10 10 -10 9 0 13 5 10 10 -3 6 -8 10 -10 10 -2
0 -7 -4 -10 -10z"/>
<path d="M9265 6442 c-35 -7 -40 -21 -17 -42 33 -31 54 -25 32 10 -6 9 -5 17
3 22 16 10 6 15 -18 10z"/>
<path d="M3110 6413 c0 -7 5 -13 10 -13 6 0 10 -11 10 -25 0 -14 5 -25 10 -25
6 0 10 6 10 14 0 17 -39 65 -40 49z"/>
<path d="M9521 6424 c0 -11 3 -14 6 -6 3 7 2 16 -1 19 -3 4 -6 -2 -5 -13z"/>
<path d="M4905 6360 c3 -5 8 -10 11 -10 2 0 4 5 4 10 0 6 -5 10 -11 10 -5 0
-7 -4 -4 -10z"/>
<path d="M9430 6306 c0 -2 7 -6 15 -10 8 -3 15 -1 15 4 0 6 -7 10 -15 10 -8 0
-15 -2 -15 -4z"/>
<path d="M9167 6236 c-14 -11 -15 -15 -4 -19 8 -3 21 3 30 14 20 22 2 26 -26
5z"/>
<path d="M8928 6073 c7 -3 16 -2 19 1 4 3 -2 6 -13 5 -11 0 -14 -3 -6 -6z"/>
<path d="M8978 6003 c7 -3 16 -2 19 1 4 3 -2 6 -13 5 -11 0 -14 -3 -6 -6z"/>
<path d="M8780 5760 c0 -6 -14 -17 -30 -24 -17 -7 -27 -16 -23 -21 5 -4 0 -5
-9 -2 -22 8 -23 3 -2 -17 21 -21 31 -20 39 5 4 11 9 18 12 15 7 -7 32 17 26
27 -2 4 1 7 7 7 6 0 8 5 5 10 -8 13 -25 13 -25 0z"/>
<path d="M4950 5213 c0 -8 5 -13 12 -11 18 6 21 25 3 25 -8 0 -15 -7 -15 -14z"/>
<path d="M4930 5190 c0 -5 7 -10 16 -10 8 0 12 5 9 10 -3 6 -10 10 -16 10 -5
0 -9 -4 -9 -10z"/>
<path d="M752 5029 c2 -7 10 -15 17 -17 8 -3 12 1 9 9 -2 7 -10 15 -17 17 -8
3 -12 -1 -9 -9z"/>
<path d="M6890 3769 c0 -5 5 -7 10 -4 6 3 10 8 10 11 0 2 -4 4 -10 4 -5 0 -10
-5 -10 -11z"/>
<path d="M7580 3360 c0 -13 13 -20 24 -11 6 5 20 11 31 14 11 2 3 4 -17 4 -21
0 -38 -3 -38 -7z"/>
<path d="M2448 2163 c7 -3 16 -2 19 1 4 3 -2 6 -13 5 -11 0 -14 -3 -6 -6z"/>
<path d="M9720 10210 c0 -5 16 -10 36 -10 21 0 33 4 29 10 -3 6 -19 10 -36 10
-16 0 -29 -4 -29 -10z"/>
<path d="M9928 9563 c7 -3 16 -2 19 1 4 3 -2 6 -13 5 -11 0 -14 -3 -6 -6z"/>
<path d="M8755 8175 c-22 -7 -37 -13 -33 -14 4 -1 -9 -36 -28 -78 -20 -42 -33
-85 -31 -95 9 -32 -16 -77 -50 -94 -40 -18 -147 -20 -189 -3 -16 6 -39 15 -51
20 -44 17 -78 31 -93 39 -17 8 -82 -8 -92 -23 -3 -6 -15 -12 -25 -13 -10 -2
-28 -14 -40 -28 -12 -15 -27 -26 -33 -26 -5 0 -10 -4 -10 -10 0 -5 -7 -10 -15
-10 -19 0 -74 -27 -92 -46 -8 -7 -40 -18 -73 -25 -33 -6 -60 -16 -60 -22 0 -6
-6 -18 -14 -26 -8 -9 -18 -28 -21 -43 -11 -43 19 -48 57 -9 17 17 42 34 55 37
28 7 103 -12 103 -26 0 -5 20 -30 45 -56 45 -47 68 -86 79 -134 4 -20 13 -27
38 -30 61 -7 93 -4 152 15 48 15 67 17 108 8 l49 -10 72 79 c65 71 75 78 109
78 38 0 82 -26 72 -42 -3 -5 1 -20 10 -33 9 -13 16 -31 16 -38 0 -8 7 -20 15
-27 12 -10 22 -50 30 -120 3 -27 38 -90 50 -90 7 0 24 -11 39 -25 25 -23 34
-25 123 -25 l97 0 48 52 c26 29 48 58 48 65 0 7 6 13 13 13 8 0 19 11 25 24 9
20 17 23 55 21 l45 -1 6 44 c3 25 6 69 6 98 0 30 5 54 10 54 6 0 10 6 10 14 0
16 27 29 41 20 5 -3 9 0 9 5 0 30 104 -11 153 -60 21 -22 38 -29 67 -29 37 0
38 1 50 48 6 27 21 60 34 75 20 23 31 27 79 27 39 0 67 -6 91 -21 43 -25 83
-19 117 18 13 14 33 29 44 34 11 5 27 13 35 17 46 26 63 32 95 32 l35 0 0 98
0 98 -72 18 c-85 21 -216 63 -240 76 -10 6 -27 10 -38 10 -32 0 -153 32 -175
46 -31 20 -120 12 -147 -13 -73 -66 -221 -118 -328 -114 -90 3 -138 31 -199
120 -34 48 -91 71 -176 70 -38 0 -88 -6 -110 -14z m491 -200 c84 -35 144 -133
144 -235 0 -44 -4 -52 -32 -73 -52 -39 -68 -44 -152 -52 -71 -7 -78 -6 -73 9
4 9 2 16 -4 16 -6 0 -9 7 -5 15 3 8 2 15 -2 15 -4 0 -18 3 -32 7 l-25 6 28
-22 c29 -24 35 -41 13 -41 -22 0 -67 48 -77 83 -24 83 -4 168 55 231 33 36 49
45 81 49 22 2 41 4 43 5 1 1 18 -5 38 -13z m-526 -253 c0 -5 9 -18 20 -30 l21
-22 -26 -10 c-77 -29 -168 13 -123 58 13 13 108 17 108 4z"/>
<path d="M9070 7700 c0 -5 5 -10 11 -10 5 0 7 5 4 10 -3 6 -8 10 -11 10 -2 0
-4 -4 -4 -10z"/>
<path d="M8396 7282 c-2 -4 -7 -42 -11 -84 -7 -74 -6 -78 13 -78 27 0 45 23
30 38 -9 9 -8 21 0 51 7 21 10 46 6 54 -6 17 -31 30 -38 19z"/>
<path d="M10227 6887 c-3 -8 -2 -20 3 -26 5 -9 8 -4 8 13 0 29 -3 32 -11 13z"/>
</g>
</svg>
